<svg width="216" height="36" viewBox="0 0 216 36" fill="none" xmlns="http://www.w3.org/2000/svg">
<path d="M0.292893 17.2929C-0.0976311 17.6834 -0.0976311 18.3166 0.292893 18.7071L6.65685 25.0711C7.04738 25.4616 7.68054 25.4616 8.07107 25.0711C8.46159 24.6805 8.46159 24.0474 8.07107 23.6569L2.41421 18L8.07107 12.3431C8.46159 11.9526 8.46159 11.3195 8.07107 10.9289C7.68054 10.5384 7.04738 10.5384 6.65685 10.9289L0.292893 17.2929ZM15 17H1V19H15V17Z" fill="#1B1C1E"/>
<path d="M36.656 26L32.672 19.16H30.032V26H27.848V9.272H33.248C34.512 9.272 35.576 9.488 36.44 9.92C37.32 10.352 37.976 10.936 38.408 11.672C38.84 12.408 39.056 13.248 39.056 14.192C39.056 15.344 38.72 16.36 38.048 17.24C37.392 18.12 36.4 18.704 35.072 18.992L39.272 26H36.656ZM30.032 17.408H33.248C34.432 17.408 35.32 17.12 35.912 16.544C36.504 15.952 36.8 15.168 36.8 14.192C36.8 13.2 36.504 12.432 35.912 11.888C35.336 11.344 34.448 11.072 33.248 11.072H30.032V17.408ZM54.4496 18.92C54.4496 19.336 54.4256 19.776 54.3776 20.24H43.8656C43.9456 21.536 44.3856 22.552 45.1856 23.288C46.0016 24.008 46.9856 24.368 48.1376 24.368C49.0816 24.368 49.8656 24.152 50.4896 23.72C51.1296 23.272 51.5776 22.68 51.8336 21.944H54.1856C53.8336 23.208 53.1296 24.24 52.0736 25.04C51.0176 25.824 49.7056 26.216 48.1376 26.216C46.8896 26.216 45.7696 25.936 44.7776 25.376C43.8016 24.816 43.0336 24.024 42.4736 23C41.9136 21.96 41.6336 20.76 41.6336 19.4C41.6336 18.04 41.9056 16.848 42.4496 15.824C42.9936 14.8 43.7536 14.016 44.7296 13.472C45.7216 12.912 46.8576 12.632 48.1376 12.632C49.3856 12.632 50.4896 12.904 51.4496 13.448C52.4096 13.992 53.1456 14.744 53.6576 15.704C54.1856 16.648 54.4496 17.72 54.4496 18.92ZM52.1936 18.464C52.1936 17.632 52.0096 16.92 51.6416 16.328C51.2736 15.72 50.7696 15.264 50.1296 14.96C49.5056 14.64 48.8096 14.48 48.0416 14.48C46.9376 14.48 45.9936 14.832 45.2096 15.536C44.4416 16.24 44.0016 17.216 43.8896 18.464H52.1936ZM61.9884 26.216C60.9804 26.216 60.0764 26.048 59.2764 25.712C58.4764 25.36 57.8444 24.88 57.3804 24.272C56.9164 23.648 56.6604 22.936 56.6124 22.136H58.8684C58.9324 22.792 59.2364 23.328 59.7804 23.744C60.3404 24.16 61.0684 24.368 61.9644 24.368C62.7964 24.368 63.4524 24.184 63.9324 23.816C64.4124 23.448 64.6524 22.984 64.6524 22.424C64.6524 21.848 64.3964 21.424 63.8844 21.152C63.3724 20.864 62.5804 20.584 61.5084 20.312C60.5324 20.056 59.7324 19.8 59.1084 19.544C58.5004 19.272 57.9724 18.88 57.5244 18.368C57.0924 17.84 56.8764 17.152 56.8764 16.304C56.8764 15.632 57.0764 15.016 57.4764 14.456C57.8764 13.896 58.4444 13.456 59.1804 13.136C59.9164 12.8 60.7564 12.632 61.7004 12.632C63.1564 12.632 64.3324 13 65.2284 13.736C66.1244 14.472 66.6044 15.48 66.6684 16.76H64.4844C64.4364 16.072 64.1564 15.52 63.6444 15.104C63.1484 14.688 62.4764 14.48 61.6284 14.48C60.8444 14.48 60.2204 14.648 59.7564 14.984C59.2924 15.32 59.0604 15.76 59.0604 16.304C59.0604 16.736 59.1964 17.096 59.4684 17.384C59.7564 17.656 60.1084 17.88 60.5244 18.056C60.9564 18.216 61.5484 18.4 62.3004 18.608C63.2444 18.864 64.0124 19.12 64.6044 19.376C65.1964 19.616 65.7004 19.984 66.1164 20.48C66.5484 20.976 66.7724 21.624 66.7884 22.424C66.7884 23.144 66.5884 23.792 66.1884 24.368C65.7884 24.944 65.2204 25.4 64.4844 25.736C63.7644 26.056 62.9324 26.216 61.9884 26.216ZM81.8714 18.92C81.8714 19.336 81.8474 19.776 81.7994 20.24H71.2874C71.3674 21.536 71.8074 22.552 72.6074 23.288C73.4234 24.008 74.4074 24.368 75.5594 24.368C76.5034 24.368 77.2874 24.152 77.9114 23.72C78.5514 23.272 78.9994 22.68 79.2554 21.944H81.6074C81.2554 23.208 80.5514 24.24 79.4954 25.04C78.4394 25.824 77.1274 26.216 75.5594 26.216C74.3114 26.216 73.1914 25.936 72.1994 25.376C71.2234 24.816 70.4554 24.024 69.8954 23C69.3354 21.96 69.0554 20.76 69.0554 19.4C69.0554 18.04 69.3274 16.848 69.8714 15.824C70.4154 14.8 71.1754 14.016 72.1514 13.472C73.1434 12.912 74.2794 12.632 75.5594 12.632C76.8074 12.632 77.9114 12.904 78.8714 13.448C79.8314 13.992 80.5674 14.744 81.0794 15.704C81.6074 16.648 81.8714 17.72 81.8714 18.92ZM79.6154 18.464C79.6154 17.632 79.4314 16.92 79.0634 16.328C78.6954 15.72 78.1914 15.264 77.5514 14.96C76.9274 14.64 76.2314 14.48 75.4634 14.48C74.3594 14.48 73.4154 14.832 72.6314 15.536C71.8634 16.24 71.4234 17.216 71.3114 18.464H79.6154ZM87.4183 14.648V22.4C87.4183 23.04 87.5543 23.496 87.8263 23.768C88.0983 24.024 88.5703 24.152 89.2422 24.152H90.8503V26H88.8823C87.6663 26 86.7543 25.72 86.1463 25.16C85.5383 24.6 85.2343 23.68 85.2343 22.4V14.648H83.5303V12.848H85.2343V9.536H87.4183V12.848H90.8503V14.648H87.4183ZM102.079 15.272C102.511 14.52 103.151 13.896 103.999 13.4C104.863 12.888 105.863 12.632 106.999 12.632C108.167 12.632 109.223 12.912 110.167 13.472C111.127 14.032 111.879 14.824 112.423 15.848C112.967 16.856 113.239 18.032 113.239 19.376C113.239 20.704 112.967 21.888 112.423 22.928C111.879 23.968 111.127 24.776 110.167 25.352C109.223 25.928 108.167 26.216 106.999 26.216C105.879 26.216 104.887 25.968 104.023 25.472C103.175 24.96 102.527 24.328 102.079 23.576V32.24H99.8949V12.848H102.079V15.272ZM111.007 19.376C111.007 18.384 110.807 17.52 110.407 16.784C110.007 16.048 109.463 15.488 108.775 15.104C108.103 14.72 107.359 14.528 106.543 14.528C105.743 14.528 104.999 14.728 104.311 15.128C103.639 15.512 103.095 16.08 102.679 16.832C102.279 17.568 102.079 18.424 102.079 19.4C102.079 20.392 102.279 21.264 102.679 22.016C103.095 22.752 103.639 23.32 104.311 23.72C104.999 24.104 105.743 24.296 106.543 24.296C107.359 24.296 108.103 24.104 108.775 23.72C109.463 23.32 110.007 22.752 110.407 22.016C110.807 21.264 111.007 20.384 111.007 19.376ZM115.298 19.376C115.298 18.032 115.57 16.856 116.114 15.848C116.658 14.824 117.402 14.032 118.346 13.472C119.306 12.912 120.37 12.632 121.538 12.632C122.69 12.632 123.69 12.88 124.538 13.376C125.386 13.872 126.018 14.496 126.434 15.248V12.848H128.642V26H126.434V23.552C126.002 24.32 125.354 24.96 124.49 25.472C123.642 25.968 122.65 26.216 121.514 26.216C120.346 26.216 119.29 25.928 118.346 25.352C117.402 24.776 116.658 23.968 116.114 22.928C115.57 21.888 115.298 20.704 115.298 19.376ZM126.434 19.4C126.434 18.408 126.234 17.544 125.834 16.808C125.434 16.072 124.89 15.512 124.202 15.128C123.53 14.728 122.786 14.528 121.97 14.528C121.154 14.528 120.41 14.72 119.738 15.104C119.066 15.488 118.53 16.048 118.13 16.784C117.73 17.52 117.53 18.384 117.53 19.376C117.53 20.384 117.73 21.264 118.13 22.016C118.53 22.752 119.066 23.32 119.738 23.72C120.41 24.104 121.154 24.296 121.97 24.296C122.786 24.296 123.53 24.104 124.202 23.72C124.89 23.32 125.434 22.752 125.834 22.016C126.234 21.264 126.434 20.392 126.434 19.4ZM136.988 26.216C135.98 26.216 135.076 26.048 134.276 25.712C133.476 25.36 132.844 24.88 132.38 24.272C131.916 23.648 131.66 22.936 131.612 22.136H133.868C133.932 22.792 134.236 23.328 134.78 23.744C135.34 24.16 136.068 24.368 136.964 24.368C137.796 24.368 138.452 24.184 138.932 23.816C139.412 23.448 139.652 22.984 139.652 22.424C139.652 21.848 139.396 21.424 138.884 21.152C138.372 20.864 137.58 20.584 136.508 20.312C135.532 20.056 134.732 19.8 134.108 19.544C133.5 19.272 132.972 18.88 132.524 18.368C132.092 17.84 131.876 17.152 131.876 16.304C131.876 15.632 132.076 15.016 132.476 14.456C132.876 13.896 133.444 13.456 134.18 13.136C134.916 12.8 135.756 12.632 136.7 12.632C138.156 12.632 139.332 13 140.228 13.736C141.124 14.472 141.604 15.48 141.668 16.76H139.484C139.436 16.072 139.156 15.52 138.644 15.104C138.148 14.688 137.476 14.48 136.628 14.48C135.844 14.48 135.22 14.648 134.756 14.984C134.292 15.32 134.06 15.76 134.06 16.304C134.06 16.736 134.196 17.096 134.468 17.384C134.756 17.656 135.108 17.88 135.524 18.056C135.956 18.216 136.548 18.4 137.3 18.608C138.244 18.864 139.012 19.12 139.604 19.376C140.196 19.616 140.7 19.984 141.116 20.48C141.548 20.976 141.772 21.624 141.788 22.424C141.788 23.144 141.588 23.792 141.188 24.368C140.788 24.944 140.22 25.4 139.484 25.736C138.764 26.056 137.932 26.216 136.988 26.216ZM149.527 26.216C148.519 26.216 147.615 26.048 146.815 25.712C146.015 25.36 145.383 24.88 144.919 24.272C144.455 23.648 144.199 22.936 144.151 22.136H146.407C146.471 22.792 146.775 23.328 147.319 23.744C147.879 24.16 148.607 24.368 149.503 24.368C150.335 24.368 150.991 24.184 151.471 23.816C151.951 23.448 152.191 22.984 152.191 22.424C152.191 21.848 151.935 21.424 151.423 21.152C150.911 20.864 150.119 20.584 149.047 20.312C148.071 20.056 147.271 19.8 146.647 19.544C146.039 19.272 145.511 18.88 145.063 18.368C144.631 17.84 144.415 17.152 144.415 16.304C144.415 15.632 144.615 15.016 145.015 14.456C145.415 13.896 145.983 13.456 146.719 13.136C147.455 12.8 148.295 12.632 149.239 12.632C150.695 12.632 151.871 13 152.767 13.736C153.663 14.472 154.143 15.48 154.207 16.76H152.023C151.975 16.072 151.695 15.52 151.183 15.104C150.687 14.688 150.015 14.48 149.167 14.48C148.383 14.48 147.759 14.648 147.295 14.984C146.831 15.32 146.599 15.76 146.599 16.304C146.599 16.736 146.735 17.096 147.007 17.384C147.295 17.656 147.647 17.88 148.063 18.056C148.495 18.216 149.087 18.4 149.839 18.608C150.783 18.864 151.551 19.12 152.143 19.376C152.735 19.616 153.239 19.984 153.655 20.48C154.087 20.976 154.311 21.624 154.327 22.424C154.327 23.144 154.127 23.792 153.727 24.368C153.327 24.944 152.759 25.4 152.023 25.736C151.303 26.056 150.471 26.216 149.527 26.216ZM174.931 12.848L170.827 26H168.571L165.403 15.56L162.235 26H159.979L155.851 12.848H158.083L161.107 23.888L164.371 12.848H166.603L169.795 23.912L172.771 12.848H174.931ZM182.834 26.216C181.602 26.216 180.482 25.936 179.474 25.376C178.482 24.816 177.698 24.024 177.122 23C176.562 21.96 176.282 20.76 176.282 19.4C176.282 18.056 176.57 16.872 177.146 15.848C177.738 14.808 178.538 14.016 179.546 13.472C180.554 12.912 181.682 12.632 182.93 12.632C184.178 12.632 185.306 12.912 186.314 13.472C187.322 14.016 188.114 14.8 188.69 15.824C189.282 16.848 189.578 18.04 189.578 19.4C189.578 20.76 189.274 21.96 188.666 23C188.074 24.024 187.266 24.816 186.242 25.376C185.218 25.936 184.082 26.216 182.834 26.216ZM182.834 24.296C183.618 24.296 184.354 24.112 185.042 23.744C185.73 23.376 186.282 22.824 186.698 22.088C187.13 21.352 187.346 20.456 187.346 19.4C187.346 18.344 187.138 17.448 186.722 16.712C186.306 15.976 185.762 15.432 185.09 15.08C184.418 14.712 183.69 14.528 182.906 14.528C182.106 14.528 181.37 14.712 180.698 15.08C180.042 15.432 179.514 15.976 179.114 16.712C178.714 17.448 178.514 18.344 178.514 19.4C178.514 20.472 178.706 21.376 179.09 22.112C179.49 22.848 180.018 23.4 180.674 23.768C181.33 24.12 182.05 24.296 182.834 24.296ZM194.634 14.984C195.018 14.232 195.562 13.648 196.266 13.232C196.986 12.816 197.858 12.608 198.882 12.608V14.864H198.306C195.858 14.864 194.634 16.192 194.634 18.848V26H192.45V12.848H194.634V14.984ZM200.587 19.376C200.587 18.032 200.859 16.856 201.403 15.848C201.947 14.824 202.691 14.032 203.635 13.472C204.595 12.912 205.667 12.632 206.851 12.632C207.875 12.632 208.827 12.872 209.707 13.352C210.587 13.816 211.259 14.432 211.723 15.2V8.24H213.931V26H211.723V23.528C211.291 24.312 210.651 24.96 209.803 25.472C208.955 25.968 207.963 26.216 206.827 26.216C205.659 26.216 204.595 25.928 203.635 25.352C202.691 24.776 201.947 23.968 201.403 22.928C200.859 21.888 200.587 20.704 200.587 19.376ZM211.723 19.4C211.723 18.408 211.523 17.544 211.123 16.808C210.723 16.072 210.179 15.512 209.491 15.128C208.819 14.728 208.075 14.528 207.259 14.528C206.443 14.528 205.699 14.72 205.027 15.104C204.355 15.488 203.819 16.048 203.419 16.784C203.019 17.52 202.819 18.384 202.819 19.376C202.819 20.384 203.019 21.264 203.419 22.016C203.819 22.752 204.355 23.32 205.027 23.72C205.699 24.104 206.443 24.296 207.259 24.296C208.075 24.296 208.819 24.104 209.491 23.72C210.179 23.32 210.723 22.752 211.123 22.016C211.523 21.264 211.723 20.392 211.723 19.4Z" fill="#1B1C1E"/>
</svg>
