<svg width="615" height="616" viewBox="0 0 615 616" fill="none" xmlns="http://www.w3.org/2000/svg">
<rect width="615" height="616" rx="4" fill="#EF9B02"/>
<path d="M615 611.527C615 613.736 613.21 615.498 611.001 615.498C606.456 615.498 596.746 615.498 576 615.498C494.783 615.498 487.82 615.498 439.018 615.498C436.809 615.498 434.993 613.72 435.072 611.512C438.001 529.82 529.88 432.298 611.011 429.167C613.219 429.082 615 430.879 615 433.088C615 512.244 615 592.958 615 611.527Z" fill="#3B72FE"/>
<ellipse cx="479.5" cy="464.763" rx="60.5" ry="60.7961" fill="#99B6FF"/>
<path d="M74.208 68.8176C72.8853 68.8176 71.6907 68.6149 70.624 68.2096C69.5573 67.7829 68.64 67.1109 67.872 66.1936C67.1253 65.2763 66.5387 64.0923 66.112 62.6416C65.7067 61.1909 65.504 59.4416 65.504 57.3936C65.504 55.3243 65.7067 53.5536 66.112 52.0816C66.5387 50.6096 67.1253 49.4043 67.872 48.4656C68.64 47.5269 69.5573 46.8336 70.624 46.3856C71.6907 45.9376 72.8853 45.7136 74.208 45.7136C75.1893 45.7136 76.064 45.8203 76.832 46.0336C77.6 46.2469 78.2827 46.5669 78.88 46.9936C79.4773 47.3989 80 47.9216 80.448 48.5616C80.896 49.2016 81.3013 49.9483 81.664 50.8016L78.272 52.5936C77.9307 51.3776 77.4507 50.5029 76.832 49.9696C76.2133 49.4363 75.3387 49.1696 74.208 49.1696C72.8 49.1696 71.7013 49.6283 70.912 50.5456C70.144 51.4629 69.76 52.7749 69.76 54.4816V60.0496C69.76 61.7563 70.144 63.0683 70.912 63.9856C71.7013 64.9029 72.8 65.3616 74.208 65.3616C75.3387 65.3616 76.2347 65.0736 76.896 64.4976C77.5787 63.9216 78.112 62.9936 78.496 61.7136L81.76 63.6336C81.3973 64.4656 80.9813 65.2016 80.512 65.8416C80.0427 66.4816 79.4987 67.0256 78.88 67.4736C78.2827 67.9003 77.6 68.2309 76.832 68.4656C76.064 68.7003 75.1893 68.8176 74.208 68.8176ZM90.6898 68.8176C88.4711 68.8176 86.7431 68.1136 85.5058 66.7056C84.2898 65.2976 83.6818 63.0896 83.6818 60.0816C83.6818 57.0736 84.2898 54.8656 85.5058 53.4576C86.7431 52.0496 88.4711 51.3456 90.6898 51.3456C92.9084 51.3456 94.6258 52.0496 95.8418 53.4576C97.0791 54.8656 97.6978 57.0736 97.6978 60.0816C97.6978 63.0896 97.0791 65.2976 95.8418 66.7056C94.6258 68.1136 92.9084 68.8176 90.6898 68.8176ZM90.6898 65.6816C92.6524 65.6816 93.6338 64.5296 93.6338 62.2256V57.9376C93.6338 55.6336 92.6524 54.4816 90.6898 54.4816C88.7271 54.4816 87.7458 55.6336 87.7458 57.9376V62.2256C87.7458 64.5296 88.7271 65.6816 90.6898 65.6816ZM100.893 68.4336V51.7296H104.765V54.5136H105.213C105.875 52.4016 107.208 51.3456 109.213 51.3456C110.707 51.3456 111.859 51.8576 112.669 52.8816C113.48 53.8843 113.885 55.3243 113.885 57.2016V68.4336H110.013V57.8736C110.013 55.6976 109.203 54.6096 107.581 54.6096C106.792 54.6096 106.12 54.8443 105.565 55.3136C105.032 55.7616 104.765 56.4016 104.765 57.2336V68.4336H100.893ZM122.533 68.4336C121.189 68.4336 120.218 68.1349 119.621 67.5376C119.023 66.9403 118.725 65.9909 118.725 64.6896V54.8336H116.517V51.7296H117.669C118.223 51.7296 118.597 51.6016 118.789 51.3456C119.002 51.0896 119.109 50.6843 119.109 50.1296V47.1856H122.597V51.7296H125.605V54.8336H122.597V65.3296H125.349V68.4336H122.533ZM139.492 68.4336C137.764 68.4336 136.857 67.4843 136.772 65.5856H136.388C136.175 66.6096 135.695 67.4096 134.948 67.9856C134.201 68.5403 133.273 68.8176 132.164 68.8176C130.628 68.8176 129.476 68.3909 128.708 67.5376C127.94 66.6843 127.556 65.4896 127.556 63.9536C127.556 62.2043 128.1 60.9029 129.188 60.0496C130.276 59.1963 131.844 58.7696 133.892 58.7696H136.484V57.3296C136.484 56.3483 136.271 55.6229 135.844 55.1536C135.439 54.6843 134.756 54.4496 133.796 54.4496C133.007 54.4496 132.345 54.6416 131.812 55.0256C131.279 55.3883 130.809 55.9109 130.404 56.5936L128.132 54.5456C128.751 53.5856 129.529 52.8176 130.468 52.2416C131.428 51.6443 132.644 51.3456 134.116 51.3456C138.276 51.3456 140.356 53.3083 140.356 57.2336V65.3296H141.828V68.4336H139.492ZM133.636 65.9696C134.425 65.9696 135.097 65.7456 135.652 65.2976C136.207 64.8283 136.484 64.1883 136.484 63.3776V61.1696H134.148C132.356 61.1696 131.46 61.8629 131.46 63.2496V63.9536C131.46 64.6576 131.652 65.1696 132.036 65.4896C132.42 65.8096 132.953 65.9696 133.636 65.9696ZM150.751 68.8176C148.489 68.8176 146.761 68.1136 145.567 66.7056C144.393 65.2976 143.807 63.0896 143.807 60.0816C143.807 57.0736 144.393 54.8656 145.567 53.4576C146.761 52.0496 148.489 51.3456 150.751 51.3456C152.393 51.3456 153.695 51.7189 154.655 52.4656C155.636 53.2123 156.34 54.2363 156.767 55.5376L153.599 56.9456C153.428 56.1349 153.119 55.5269 152.671 55.1216C152.244 54.6949 151.604 54.4816 150.751 54.4816C148.831 54.4816 147.871 55.6336 147.871 57.9376V62.2256C147.871 64.5296 148.831 65.6816 150.751 65.6816C151.647 65.6816 152.329 65.4683 152.799 65.0416C153.268 64.6149 153.62 63.9536 153.855 63.0576L156.863 64.4976C155.881 67.3776 153.844 68.8176 150.751 68.8176ZM164.283 68.4336C162.939 68.4336 161.968 68.1349 161.371 67.5376C160.773 66.9403 160.475 65.9909 160.475 64.6896V54.8336H158.267V51.7296H159.419C159.973 51.7296 160.347 51.6016 160.539 51.3456C160.752 51.0896 160.859 50.6843 160.859 50.1296V47.1856H164.347V51.7296H167.355V54.8336H164.347V65.3296H167.099V68.4336H164.283ZM176.567 68.4336V65.2656H179.223V49.2656H176.567V46.0976H185.879V49.2656H183.223V65.2656H185.879V68.4336H176.567ZM189.518 68.4336V51.7296H193.39V54.5136H193.838C194.5 52.4016 195.833 51.3456 197.838 51.3456C199.332 51.3456 200.484 51.8576 201.294 52.8816C202.105 53.8843 202.51 55.3243 202.51 57.2016V68.4336H198.638V57.8736C198.638 55.6976 197.828 54.6096 196.206 54.6096C195.417 54.6096 194.745 54.8443 194.19 55.3136C193.657 55.7616 193.39 56.4016 193.39 57.2336V68.4336H189.518ZM207.35 54.8336H205.142V51.7296H207.35V49.1376C207.35 47.6229 207.68 46.5136 208.342 45.8096C209.024 45.1056 210.07 44.7536 211.478 44.7536H214.294V47.8576H211.222V51.7296H214.294V54.8336H211.222V68.4336H207.35V54.8336ZM222.909 68.8176C220.69 68.8176 218.962 68.1136 217.725 66.7056C216.509 65.2976 215.901 63.0896 215.901 60.0816C215.901 57.0736 216.509 54.8656 217.725 53.4576C218.962 52.0496 220.69 51.3456 222.909 51.3456C225.127 51.3456 226.845 52.0496 228.061 53.4576C229.298 54.8656 229.917 57.0736 229.917 60.0816C229.917 63.0896 229.298 65.2976 228.061 66.7056C226.845 68.1136 225.127 68.8176 222.909 68.8176ZM222.909 65.6816C224.871 65.6816 225.853 64.5296 225.853 62.2256V57.9376C225.853 55.6336 224.871 54.4816 222.909 54.4816C220.946 54.4816 219.965 55.6336 219.965 57.9376V62.2256C219.965 64.5296 220.946 65.6816 222.909 65.6816ZM233.112 68.4336V51.7296H236.984V55.1536H237.432C237.624 54.0443 238.019 53.2016 238.616 52.6256C239.235 52.0283 240.035 51.7296 241.016 51.7296H241.848V55.6976H240.568C239.352 55.6976 238.445 55.8896 237.848 56.2736C237.272 56.6576 236.984 57.3296 236.984 58.2896V68.4336H233.112ZM244.549 68.4336V51.7296H248.422V54.5136H248.87C249.531 52.4016 250.843 51.3456 252.806 51.3456C254.896 51.3456 256.251 52.4443 256.87 54.6416H257.254C257.616 53.5109 258.171 52.6789 258.918 52.1456C259.686 51.6123 260.614 51.3456 261.702 51.3456C263.11 51.3456 264.208 51.8576 264.998 52.8816C265.787 53.8843 266.182 55.3243 266.182 57.2016V68.4336H262.31V57.8736C262.31 55.6976 261.531 54.6096 259.974 54.6096C259.227 54.6096 258.587 54.8443 258.054 55.3136C257.542 55.7616 257.286 56.4016 257.286 57.2336V68.4336H253.414V57.8736C253.414 56.7216 253.222 55.8896 252.838 55.3776C252.454 54.8656 251.878 54.6096 251.11 54.6096C250.363 54.6096 249.723 54.8443 249.19 55.3136C248.678 55.7616 248.422 56.4016 248.422 57.2336V68.4336H244.549ZM281.086 68.4336C279.358 68.4336 278.451 67.4843 278.366 65.5856H277.982C277.768 66.6096 277.288 67.4096 276.542 67.9856C275.795 68.5403 274.867 68.8176 273.758 68.8176C272.222 68.8176 271.07 68.3909 270.302 67.5376C269.534 66.6843 269.15 65.4896 269.15 63.9536C269.15 62.2043 269.694 60.9029 270.782 60.0496C271.87 59.1963 273.438 58.7696 275.486 58.7696H278.078V57.3296C278.078 56.3483 277.864 55.6229 277.438 55.1536C277.032 54.6843 276.35 54.4496 275.39 54.4496C274.6 54.4496 273.939 54.6416 273.406 55.0256C272.872 55.3883 272.403 55.9109 271.998 56.5936L269.726 54.5456C270.344 53.5856 271.123 52.8176 272.062 52.2416C273.022 51.6443 274.238 51.3456 275.71 51.3456C279.87 51.3456 281.95 53.3083 281.95 57.2336V65.3296H283.422V68.4336H281.086ZM275.23 65.9696C276.019 65.9696 276.691 65.7456 277.246 65.2976C277.8 64.8283 278.078 64.1883 278.078 63.3776V61.1696H275.742C273.95 61.1696 273.054 61.8629 273.054 63.2496V63.9536C273.054 64.6576 273.246 65.1696 273.63 65.4896C274.014 65.8096 274.547 65.9696 275.23 65.9696ZM290.845 68.4336C289.501 68.4336 288.53 68.1349 287.933 67.5376C287.336 66.9403 287.037 65.9909 287.037 64.6896V54.8336H284.829V51.7296H285.981C286.536 51.7296 286.909 51.6016 287.101 51.3456C287.314 51.0896 287.421 50.6843 287.421 50.1296V47.1856H290.909V51.7296H293.917V54.8336H290.909V65.3296H293.661V68.4336H290.845ZM298.845 49.1056C298.034 49.1056 297.447 48.9349 297.085 48.5936C296.722 48.2309 296.541 47.7509 296.541 47.1536V46.5136C296.541 45.9163 296.722 45.4469 297.085 45.1056C297.447 44.7429 298.034 44.5616 298.845 44.5616C299.655 44.5616 300.242 44.7429 300.605 45.1056C300.967 45.4469 301.149 45.9163 301.149 46.5136V47.1536C301.149 47.7509 300.967 48.2309 300.605 48.5936C300.242 48.9349 299.655 49.1056 298.845 49.1056ZM296.924 51.7296H300.797V68.4336H296.924V51.7296ZM310.971 68.8176C308.752 68.8176 307.024 68.1136 305.787 66.7056C304.571 65.2976 303.963 63.0896 303.963 60.0816C303.963 57.0736 304.571 54.8656 305.787 53.4576C307.024 52.0496 308.752 51.3456 310.971 51.3456C313.19 51.3456 314.907 52.0496 316.123 53.4576C317.36 54.8656 317.979 57.0736 317.979 60.0816C317.979 63.0896 317.36 65.2976 316.123 66.7056C314.907 68.1136 313.19 68.8176 310.971 68.8176ZM310.971 65.6816C312.934 65.6816 313.915 64.5296 313.915 62.2256V57.9376C313.915 55.6336 312.934 54.4816 310.971 54.4816C309.008 54.4816 308.027 55.6336 308.027 57.9376V62.2256C308.027 64.5296 309.008 65.6816 310.971 65.6816ZM321.174 68.4336V51.7296H325.047V54.5136H325.495C326.156 52.4016 327.489 51.3456 329.495 51.3456C330.988 51.3456 332.14 51.8576 332.951 52.8816C333.761 53.8843 334.167 55.3243 334.167 57.2016V68.4336H330.295V57.8736C330.295 55.6976 329.484 54.6096 327.863 54.6096C327.073 54.6096 326.401 54.8443 325.847 55.3136C325.313 55.7616 325.047 56.4016 325.047 57.2336V68.4336H321.174Z" fill="white"/>
<path d="M66.66 107.313V93.3527H74.2V94.7527H68.26V99.5527H73.66V100.953H68.26V107.313H66.66ZM77.3777 94.4927C76.751 94.4927 76.4377 94.2194 76.4377 93.6727V93.3527C76.4377 92.8061 76.751 92.5327 77.3777 92.5327C78.0043 92.5327 78.3177 92.8061 78.3177 93.3527V93.6727C78.3177 94.2194 78.0043 94.4927 77.3777 94.4927ZM76.6177 96.9927H78.1377V107.313H76.6177V96.9927ZM82.7284 107.313C82.1818 107.313 81.7818 107.193 81.5284 106.953C81.2884 106.699 81.1684 106.299 81.1684 105.753V92.5127H82.6884V105.973H83.9884V107.313H82.7284ZM87.4941 107.313C86.9474 107.313 86.5474 107.193 86.2941 106.953C86.0541 106.699 85.9341 106.299 85.9341 105.753V92.5127H87.4541V105.973H88.7541V107.313H87.4941ZM100.814 105.633H100.614C100.414 106.273 100.1 106.753 99.6738 107.073C99.2604 107.393 98.6938 107.553 97.9738 107.553C97.0538 107.553 96.3271 107.239 95.7938 106.613C95.2738 105.986 95.0138 105.019 95.0138 103.713V96.9927H96.5337V103.613C96.5337 104.439 96.7004 105.073 97.0338 105.513C97.3804 105.953 97.9071 106.173 98.6138 106.173C99.2271 106.173 99.7471 105.986 100.174 105.613C100.6 105.239 100.814 104.713 100.814 104.033V96.9927H102.334V107.313H100.814V105.633ZM105.368 96.9927H106.888V98.6727H107.088C107.288 97.9927 107.608 97.5061 108.048 97.2127C108.501 96.9061 109.048 96.7527 109.688 96.7527C110.301 96.7527 110.841 96.8794 111.308 97.1327C111.774 97.3861 112.168 97.7461 112.488 98.2127C112.808 98.6794 113.048 99.2461 113.208 99.9127C113.368 100.579 113.448 101.326 113.448 102.153C113.448 102.979 113.368 103.726 113.208 104.393C113.048 105.059 112.808 105.626 112.488 106.093C112.168 106.559 111.774 106.919 111.308 107.173C110.841 107.426 110.301 107.553 109.688 107.553C109.048 107.553 108.501 107.406 108.048 107.113C107.608 106.806 107.288 106.313 107.088 105.633H106.888V111.313H105.368V96.9927ZM109.228 106.193C110.068 106.193 110.708 105.933 111.148 105.413C111.588 104.879 111.808 104.139 111.808 103.193V101.113C111.808 100.166 111.588 99.4327 111.148 98.9127C110.708 98.3794 110.068 98.1127 109.228 98.1127C108.908 98.1127 108.601 98.1594 108.308 98.2527C108.028 98.3461 107.781 98.4794 107.568 98.6527C107.368 98.8261 107.201 99.0327 107.068 99.2727C106.948 99.5127 106.888 99.7794 106.888 100.073V104.233C106.888 104.526 106.948 104.793 107.068 105.033C107.201 105.273 107.368 105.479 107.568 105.653C107.781 105.826 108.028 105.959 108.308 106.053C108.601 106.146 108.908 106.193 109.228 106.193ZM122.174 107.313C121.628 107.313 121.228 107.193 120.974 106.953C120.734 106.699 120.614 106.299 120.614 105.753V98.3327H119.094V96.9927H119.994C120.301 96.9927 120.501 96.9194 120.594 96.7727C120.701 96.6127 120.754 96.3794 120.754 96.0727V94.1527H122.134V96.9927H124.134V98.3327H122.134V105.973H124.034V107.313H122.174ZM126.461 92.5127H127.981V98.6727H128.181C128.381 98.0327 128.688 97.5527 129.101 97.2327C129.528 96.9127 130.101 96.7527 130.821 96.7527C131.741 96.7527 132.461 97.0661 132.981 97.6927C133.515 98.3194 133.781 99.2861 133.781 100.593V107.313H132.261V100.693C132.261 99.8661 132.088 99.2327 131.741 98.7927C131.408 98.3527 130.888 98.1327 130.181 98.1327C129.568 98.1327 129.048 98.3194 128.621 98.6927C128.195 99.0661 127.981 99.5927 127.981 100.273V107.313H126.461V92.5127ZM140.235 107.553C139.635 107.553 139.075 107.453 138.555 107.253C138.035 107.053 137.589 106.733 137.215 106.293C136.842 105.853 136.549 105.293 136.335 104.613C136.122 103.933 136.015 103.113 136.015 102.153C136.015 101.193 136.122 100.373 136.335 99.6927C136.549 99.0127 136.842 98.4527 137.215 98.0127C137.589 97.5727 138.035 97.2527 138.555 97.0527C139.075 96.8527 139.635 96.7527 140.235 96.7527C140.835 96.7527 141.382 96.8527 141.875 97.0527C142.382 97.2527 142.809 97.5727 143.155 98.0127C143.502 98.4527 143.769 99.0127 143.955 99.6927C144.155 100.373 144.255 101.193 144.255 102.153V102.533H137.635V103.193C137.635 104.206 137.862 104.966 138.315 105.473C138.782 105.966 139.422 106.213 140.235 106.213C140.929 106.213 141.495 106.066 141.935 105.773C142.375 105.466 142.722 105.013 142.975 104.413L144.015 105.173C143.695 105.879 143.222 106.453 142.595 106.893C141.982 107.333 141.195 107.553 140.235 107.553ZM140.235 98.0327C139.409 98.0327 138.769 98.2927 138.315 98.8127C137.862 99.3327 137.635 100.099 137.635 101.113V101.373H142.635V101.113C142.635 99.0594 141.835 98.0327 140.235 98.0327ZM151.356 98.3327H149.856V96.9927H151.356V94.4727C151.356 93.7927 151.509 93.2994 151.816 92.9927C152.136 92.6727 152.636 92.5127 153.316 92.5127H154.856V93.8527H152.876V96.9927H154.856V98.3327H152.876V107.313H151.356V98.3327ZM160.157 107.553C159.557 107.553 158.997 107.453 158.477 107.253C157.957 107.053 157.511 106.733 157.137 106.293C156.764 105.853 156.471 105.293 156.257 104.613C156.044 103.933 155.937 103.113 155.937 102.153C155.937 101.193 156.044 100.373 156.257 99.6927C156.471 99.0127 156.764 98.4527 157.137 98.0127C157.511 97.5727 157.957 97.2527 158.477 97.0527C158.997 96.8527 159.557 96.7527 160.157 96.7527C160.757 96.7527 161.317 96.8527 161.837 97.0527C162.357 97.2527 162.804 97.5727 163.177 98.0127C163.551 98.4527 163.844 99.0127 164.057 99.6927C164.271 100.373 164.377 101.193 164.377 102.153C164.377 103.113 164.271 103.933 164.057 104.613C163.844 105.293 163.551 105.853 163.177 106.293C162.804 106.733 162.357 107.053 161.837 107.253C161.317 107.453 160.757 107.553 160.157 107.553ZM160.157 106.193C160.984 106.193 161.617 105.946 162.057 105.453C162.511 104.959 162.737 104.206 162.737 103.193V101.113C162.737 100.099 162.511 99.3461 162.057 98.8527C161.617 98.3594 160.984 98.1127 160.157 98.1127C159.331 98.1127 158.691 98.3594 158.237 98.8527C157.797 99.3461 157.577 100.099 157.577 101.113V103.193C157.577 104.206 157.797 104.959 158.237 105.453C158.691 105.946 159.331 106.193 160.157 106.193ZM166.715 107.313V96.9927H168.235V98.9127H168.435C168.609 98.3127 168.902 97.8461 169.315 97.5127C169.742 97.1661 170.295 96.9927 170.975 96.9927H171.535V98.5327H170.535C169.815 98.5327 169.249 98.6927 168.835 99.0127C168.435 99.3327 168.235 99.8127 168.235 100.453V107.313H166.715ZM173.356 107.313V96.9927H174.876V98.6727H175.076C175.276 98.0327 175.569 97.5527 175.956 97.2327C176.343 96.9127 176.889 96.7527 177.596 96.7527C178.236 96.7527 178.776 96.9127 179.216 97.2327C179.669 97.5394 180.009 98.0194 180.236 98.6727H180.436C180.649 98.0327 180.983 97.5527 181.436 97.2327C181.889 96.9127 182.489 96.7527 183.236 96.7527C184.116 96.7527 184.823 97.0661 185.356 97.6927C185.889 98.3194 186.156 99.2861 186.156 100.593V107.313H184.636V100.693C184.636 99.8661 184.469 99.2327 184.136 98.7927C183.816 98.3527 183.316 98.1327 182.636 98.1327C182.036 98.1327 181.529 98.3194 181.116 98.6927C180.716 99.0661 180.516 99.5927 180.516 100.273V107.313H178.996V100.693C178.996 99.8661 178.829 99.2327 178.496 98.7927C178.176 98.3527 177.676 98.1327 176.996 98.1327C176.396 98.1327 175.889 98.3194 175.476 98.6927C175.076 99.0661 174.876 99.5927 174.876 100.273V107.313H173.356ZM199.856 107.313C198.87 107.313 198.376 106.819 198.376 105.833V105.633H198.176C198.003 106.259 197.683 106.739 197.216 107.073C196.763 107.393 196.216 107.553 195.576 107.553C194.576 107.553 193.83 107.299 193.336 106.793C192.843 106.286 192.596 105.539 192.596 104.553C192.596 103.593 192.91 102.833 193.536 102.273C194.176 101.713 195.17 101.433 196.516 101.433H198.376V100.293C198.376 99.5327 198.203 98.9727 197.856 98.6127C197.523 98.2527 196.99 98.0727 196.256 98.0727C195.656 98.0727 195.17 98.2061 194.796 98.4727C194.436 98.7261 194.123 99.0994 193.856 99.5927L192.956 98.7527C193.223 98.1927 193.65 97.7261 194.236 97.3527C194.823 96.9661 195.516 96.7727 196.316 96.7727C197.49 96.7727 198.376 97.0594 198.976 97.6327C199.59 98.1927 199.896 99.0261 199.896 100.133V105.973H200.936V107.313H199.856ZM195.956 106.233C196.303 106.233 196.623 106.173 196.916 106.053C197.223 105.933 197.483 105.779 197.696 105.593C197.91 105.393 198.076 105.173 198.196 104.933C198.316 104.679 198.376 104.419 198.376 104.153V102.593H196.476C195.676 102.593 195.09 102.726 194.716 102.993C194.356 103.259 194.176 103.646 194.176 104.153V104.713C194.176 105.233 194.336 105.619 194.656 105.873C194.976 106.113 195.41 106.233 195.956 106.233ZM203.004 107.313V96.9927H204.524V98.6727H204.724C204.924 98.0327 205.231 97.5527 205.644 97.2327C206.071 96.9127 206.644 96.7527 207.364 96.7527C208.284 96.7527 209.004 97.0661 209.524 97.6927C210.058 98.3194 210.324 99.2861 210.324 100.593V107.313H208.804V100.693C208.804 99.8661 208.631 99.2327 208.284 98.7927C207.951 98.3527 207.431 98.1327 206.724 98.1327C206.111 98.1327 205.591 98.3194 205.164 98.6927C204.738 99.0661 204.524 99.5927 204.524 100.273V107.313H203.004ZM219.178 105.633H218.978C218.778 106.313 218.452 106.806 217.998 107.113C217.558 107.406 217.018 107.553 216.378 107.553C215.765 107.553 215.225 107.426 214.758 107.173C214.292 106.919 213.898 106.559 213.578 106.093C213.258 105.626 213.018 105.059 212.858 104.393C212.698 103.726 212.618 102.979 212.618 102.153C212.618 101.326 212.698 100.579 212.858 99.9127C213.018 99.2461 213.258 98.6794 213.578 98.2127C213.898 97.7461 214.292 97.3861 214.758 97.1327C215.225 96.8794 215.765 96.7527 216.378 96.7527C217.018 96.7527 217.558 96.9061 217.998 97.2127C218.452 97.5061 218.778 97.9927 218.978 98.6727H219.178V92.5127H220.698V107.313H219.178V105.633ZM216.838 106.193C217.158 106.193 217.458 106.146 217.738 106.053C218.032 105.959 218.278 105.826 218.478 105.653C218.692 105.479 218.858 105.273 218.978 105.033C219.112 104.793 219.178 104.526 219.178 104.233V100.073C219.178 99.7794 219.112 99.5127 218.978 99.2727C218.858 99.0327 218.692 98.8261 218.478 98.6527C218.278 98.4794 218.032 98.3461 217.738 98.2527C217.458 98.1594 217.158 98.1127 216.838 98.1127C215.998 98.1127 215.358 98.3794 214.918 98.9127C214.478 99.4327 214.258 100.166 214.258 101.113V103.193C214.258 104.139 214.478 104.879 214.918 105.413C215.358 105.933 215.998 106.193 216.838 106.193ZM231.505 107.553C230.905 107.553 230.345 107.453 229.825 107.253C229.305 107.053 228.858 106.733 228.485 106.293C228.112 105.853 227.818 105.293 227.605 104.613C227.392 103.933 227.285 103.113 227.285 102.153C227.285 101.193 227.392 100.373 227.605 99.6927C227.818 99.0127 228.112 98.4527 228.485 98.0127C228.858 97.5727 229.305 97.2527 229.825 97.0527C230.345 96.8527 230.905 96.7527 231.505 96.7527C232.105 96.7527 232.665 96.8527 233.185 97.0527C233.705 97.2527 234.152 97.5727 234.525 98.0127C234.898 98.4527 235.192 99.0127 235.405 99.6927C235.618 100.373 235.725 101.193 235.725 102.153C235.725 103.113 235.618 103.933 235.405 104.613C235.192 105.293 234.898 105.853 234.525 106.293C234.152 106.733 233.705 107.053 233.185 107.253C232.665 107.453 232.105 107.553 231.505 107.553ZM231.505 106.193C232.332 106.193 232.965 105.946 233.405 105.453C233.858 104.959 234.085 104.206 234.085 103.193V101.113C234.085 100.099 233.858 99.3461 233.405 98.8527C232.965 98.3594 232.332 98.1127 231.505 98.1127C230.678 98.1127 230.038 98.3594 229.585 98.8527C229.145 99.3461 228.925 100.099 228.925 101.113V103.193C228.925 104.206 229.145 104.959 229.585 105.453C230.038 105.946 230.678 106.193 231.505 106.193ZM243.763 105.633H243.563C243.363 106.273 243.05 106.753 242.623 107.073C242.21 107.393 241.643 107.553 240.923 107.553C240.003 107.553 239.276 107.239 238.743 106.613C238.223 105.986 237.963 105.019 237.963 103.713V96.9927H239.483V103.613C239.483 104.439 239.65 105.073 239.983 105.513C240.33 105.953 240.856 106.173 241.563 106.173C242.176 106.173 242.696 105.986 243.123 105.613C243.55 105.239 243.763 104.713 243.763 104.033V96.9927H245.283V107.313H243.763V105.633ZM248.317 107.313V96.9927H249.837V98.9127H250.037C250.21 98.3127 250.504 97.8461 250.917 97.5127C251.344 97.1661 251.897 96.9927 252.577 96.9927H253.137V98.5327H252.137C251.417 98.5327 250.85 98.6927 250.437 99.0127C250.037 99.3327 249.837 99.8127 249.837 100.453V107.313H248.317ZM261.276 107.313C260.729 107.313 260.329 107.193 260.076 106.953C259.836 106.699 259.716 106.299 259.716 105.753V98.3327H258.196V96.9927H259.096C259.402 96.9927 259.602 96.9194 259.696 96.7727C259.802 96.6127 259.856 96.3794 259.856 96.0727V94.1527H261.236V96.9927H263.236V98.3327H261.236V105.973H263.136V107.313H261.276ZM269.005 107.553C268.405 107.553 267.845 107.453 267.325 107.253C266.805 107.053 266.358 106.733 265.985 106.293C265.612 105.853 265.318 105.293 265.105 104.613C264.892 103.933 264.785 103.113 264.785 102.153C264.785 101.193 264.892 100.373 265.105 99.6927C265.318 99.0127 265.612 98.4527 265.985 98.0127C266.358 97.5727 266.805 97.2527 267.325 97.0527C267.845 96.8527 268.405 96.7527 269.005 96.7527C269.605 96.7527 270.152 96.8527 270.645 97.0527C271.152 97.2527 271.578 97.5727 271.925 98.0127C272.272 98.4527 272.538 99.0127 272.725 99.6927C272.925 100.373 273.025 101.193 273.025 102.153V102.533H266.405V103.193C266.405 104.206 266.632 104.966 267.085 105.473C267.552 105.966 268.192 106.213 269.005 106.213C269.698 106.213 270.265 106.066 270.705 105.773C271.145 105.466 271.492 105.013 271.745 104.413L272.785 105.173C272.465 105.879 271.992 106.453 271.365 106.893C270.752 107.333 269.965 107.553 269.005 107.553ZM269.005 98.0327C268.178 98.0327 267.538 98.2927 267.085 98.8127C266.632 99.3327 266.405 100.099 266.405 101.113V101.373H271.405V101.113C271.405 99.0594 270.605 98.0327 269.005 98.0327ZM281.907 107.313C280.921 107.313 280.427 106.819 280.427 105.833V105.633H280.227C280.054 106.259 279.734 106.739 279.267 107.073C278.814 107.393 278.267 107.553 277.627 107.553C276.627 107.553 275.881 107.299 275.387 106.793C274.894 106.286 274.647 105.539 274.647 104.553C274.647 103.593 274.961 102.833 275.587 102.273C276.227 101.713 277.221 101.433 278.567 101.433H280.427V100.293C280.427 99.5327 280.254 98.9727 279.907 98.6127C279.574 98.2527 279.041 98.0727 278.307 98.0727C277.707 98.0727 277.221 98.2061 276.847 98.4727C276.487 98.7261 276.174 99.0994 275.907 99.5927L275.007 98.7527C275.274 98.1927 275.701 97.7261 276.287 97.3527C276.874 96.9661 277.567 96.7727 278.367 96.7727C279.541 96.7727 280.427 97.0594 281.027 97.6327C281.641 98.1927 281.947 99.0261 281.947 100.133V105.973H282.987V107.313H281.907ZM278.007 106.233C278.354 106.233 278.674 106.173 278.967 106.053C279.274 105.933 279.534 105.779 279.747 105.593C279.961 105.393 280.127 105.173 280.247 104.933C280.367 104.679 280.427 104.419 280.427 104.153V102.593H278.527C277.727 102.593 277.141 102.726 276.767 102.993C276.407 103.259 276.227 103.646 276.227 104.153V104.713C276.227 105.233 276.387 105.619 276.707 105.873C277.027 106.113 277.461 106.233 278.007 106.233ZM285.055 107.313V96.9927H286.575V98.6727H286.775C286.975 98.0327 287.268 97.5527 287.655 97.2327C288.042 96.9127 288.588 96.7527 289.295 96.7527C289.935 96.7527 290.475 96.9127 290.915 97.2327C291.368 97.5394 291.708 98.0194 291.935 98.6727H292.135C292.348 98.0327 292.682 97.5527 293.135 97.2327C293.588 96.9127 294.188 96.7527 294.935 96.7527C295.815 96.7527 296.522 97.0661 297.055 97.6927C297.588 98.3194 297.855 99.2861 297.855 100.593V107.313H296.335V100.693C296.335 99.8661 296.168 99.2327 295.835 98.7927C295.515 98.3527 295.015 98.1327 294.335 98.1327C293.735 98.1327 293.228 98.3194 292.815 98.6927C292.415 99.0661 292.215 99.5927 292.215 100.273V107.313H290.695V100.693C290.695 99.8661 290.528 99.2327 290.195 98.7927C289.875 98.3527 289.375 98.1327 288.695 98.1327C288.095 98.1327 287.588 98.3194 287.175 98.6927C286.775 99.0661 286.575 99.5927 286.575 100.273V107.313H285.055ZM304.056 96.9927H305.536L306.536 101.473L307.416 105.973H307.616L308.636 101.473L309.676 96.9927H311.436L312.476 101.473L313.496 105.973H313.696L314.576 101.473L315.576 96.9927H317.016L314.536 107.313H312.616L311.356 102.313L310.656 98.5327H310.456L309.716 102.313L308.456 107.313H306.536L304.056 96.9927ZM319.76 94.4927C319.134 94.4927 318.82 94.2194 318.82 93.6727V93.3527C318.82 92.8061 319.134 92.5327 319.76 92.5327C320.387 92.5327 320.7 92.8061 320.7 93.3527V93.6727C320.7 94.2194 320.387 94.4927 319.76 94.4927ZM319 96.9927H320.52V107.313H319V96.9927ZM325.111 107.313C324.565 107.313 324.165 107.193 323.911 106.953C323.671 106.699 323.551 106.299 323.551 105.753V92.5127H325.071V105.973H326.371V107.313H325.111ZM329.877 107.313C329.33 107.313 328.93 107.193 328.677 106.953C328.437 106.699 328.317 106.299 328.317 105.753V92.5127H329.837V105.973H331.137V107.313H329.877ZM345.377 108.473C345.377 109.566 345.003 110.353 344.257 110.833C343.523 111.313 342.383 111.553 340.837 111.553C339.357 111.553 338.297 111.333 337.657 110.893C337.03 110.453 336.717 109.819 336.717 108.993C336.717 108.433 336.857 107.993 337.137 107.673C337.417 107.353 337.777 107.153 338.217 107.073V106.793C337.95 106.646 337.737 106.459 337.577 106.233C337.43 105.993 337.357 105.713 337.357 105.393C337.357 104.966 337.477 104.599 337.717 104.293C337.97 103.986 338.377 103.799 338.937 103.733V103.513C338.403 103.246 337.983 102.853 337.677 102.333C337.383 101.799 337.237 101.133 337.237 100.333C337.237 99.1594 337.557 98.2727 338.197 97.6727C338.837 97.0727 339.697 96.7727 340.777 96.7727C341.417 96.7727 341.997 96.8861 342.517 97.1127V96.7527C342.517 96.3661 342.603 96.0861 342.777 95.9127C342.95 95.7394 343.23 95.6527 343.617 95.6527H344.997V96.9927H343.217V97.5527C343.563 97.8594 343.83 98.2394 344.017 98.6927C344.217 99.1461 344.317 99.6927 344.317 100.333C344.317 101.506 343.997 102.393 343.357 102.993C342.717 103.593 341.857 103.893 340.777 103.893C340.457 103.893 340.13 103.859 339.797 103.793C339.423 103.859 339.137 104.013 338.937 104.253C338.75 104.479 338.657 104.713 338.657 104.953C338.657 105.219 338.75 105.419 338.937 105.553C339.123 105.686 339.43 105.753 339.857 105.753H342.117C343.277 105.753 344.11 105.986 344.617 106.453C345.123 106.919 345.377 107.593 345.377 108.473ZM343.957 108.573C343.957 108.119 343.817 107.773 343.537 107.533C343.257 107.306 342.777 107.193 342.097 107.193H338.957C338.65 107.339 338.43 107.526 338.297 107.753C338.177 107.979 338.117 108.266 338.117 108.613C338.117 109.133 338.277 109.539 338.597 109.833C338.917 110.139 339.43 110.293 340.137 110.293H341.457C342.283 110.293 342.903 110.153 343.317 109.873C343.743 109.606 343.957 109.173 343.957 108.573ZM340.777 102.653C341.403 102.653 341.89 102.493 342.237 102.173C342.583 101.853 342.757 101.359 342.757 100.693V99.9527C342.757 99.2861 342.583 98.7927 342.237 98.4727C341.89 98.1527 341.403 97.9927 340.777 97.9927C340.15 97.9927 339.663 98.1527 339.317 98.4727C338.97 98.7927 338.797 99.2861 338.797 99.9527V100.693C338.797 101.359 338.97 101.853 339.317 102.173C339.663 102.493 340.15 102.653 340.777 102.653ZM350.45 107.553C349.85 107.553 349.29 107.453 348.77 107.253C348.25 107.053 347.803 106.733 347.43 106.293C347.057 105.853 346.763 105.293 346.55 104.613C346.337 103.933 346.23 103.113 346.23 102.153C346.23 101.193 346.337 100.373 346.55 99.6927C346.763 99.0127 347.057 98.4527 347.43 98.0127C347.803 97.5727 348.25 97.2527 348.77 97.0527C349.29 96.8527 349.85 96.7527 350.45 96.7527C351.05 96.7527 351.597 96.8527 352.09 97.0527C352.597 97.2527 353.023 97.5727 353.37 98.0127C353.717 98.4527 353.983 99.0127 354.17 99.6927C354.37 100.373 354.47 101.193 354.47 102.153V102.533H347.85V103.193C347.85 104.206 348.077 104.966 348.53 105.473C348.997 105.966 349.637 106.213 350.45 106.213C351.143 106.213 351.71 106.066 352.15 105.773C352.59 105.466 352.937 105.013 353.19 104.413L354.23 105.173C353.91 105.879 353.437 106.453 352.81 106.893C352.197 107.333 351.41 107.553 350.45 107.553ZM350.45 98.0327C349.623 98.0327 348.983 98.2927 348.53 98.8127C348.077 99.3327 347.85 100.099 347.85 101.113V101.373H352.85V101.113C352.85 99.0594 352.05 98.0327 350.45 98.0327ZM358.913 107.313C358.366 107.313 357.966 107.193 357.713 106.953C357.473 106.699 357.353 106.299 357.353 105.753V98.3327H355.833V96.9927H356.733C357.039 96.9927 357.239 96.9194 357.333 96.7727C357.439 96.6127 357.493 96.3794 357.493 96.0727V94.1527H358.873V96.9927H360.873V98.3327H358.873V105.973H360.773V107.313H358.913ZM367.438 92.5127H368.958V98.6727H369.158C369.358 97.9927 369.678 97.5061 370.118 97.2127C370.571 96.9061 371.118 96.7527 371.758 96.7527C372.371 96.7527 372.911 96.8794 373.378 97.1327C373.845 97.3861 374.238 97.7461 374.558 98.2127C374.878 98.6794 375.118 99.2461 375.278 99.9127C375.438 100.579 375.518 101.326 375.518 102.153C375.518 102.979 375.438 103.726 375.278 104.393C375.118 105.059 374.878 105.626 374.558 106.093C374.238 106.559 373.845 106.919 373.378 107.173C372.911 107.426 372.371 107.553 371.758 107.553C371.118 107.553 370.571 107.406 370.118 107.113C369.678 106.806 369.358 106.313 369.158 105.633H368.958V107.313H367.438V92.5127ZM371.298 106.193C372.138 106.193 372.778 105.933 373.218 105.413C373.658 104.879 373.878 104.139 373.878 103.193V101.113C373.878 100.166 373.658 99.4327 373.218 98.9127C372.778 98.3794 372.138 98.1127 371.298 98.1127C370.978 98.1127 370.671 98.1594 370.378 98.2527C370.098 98.3461 369.851 98.4794 369.638 98.6527C369.438 98.8261 369.271 99.0327 369.138 99.2727C369.018 99.5127 368.958 99.7794 368.958 100.073V104.233C368.958 104.526 369.018 104.793 369.138 105.033C369.271 105.273 369.438 105.479 369.638 105.653C369.851 105.826 370.098 105.959 370.378 106.053C370.671 106.146 370.978 106.193 371.298 106.193ZM384.446 107.313C383.46 107.313 382.966 106.819 382.966 105.833V105.633H382.766C382.593 106.259 382.273 106.739 381.806 107.073C381.353 107.393 380.806 107.553 380.166 107.553C379.166 107.553 378.42 107.299 377.926 106.793C377.433 106.286 377.186 105.539 377.186 104.553C377.186 103.593 377.5 102.833 378.126 102.273C378.766 101.713 379.76 101.433 381.106 101.433H382.966V100.293C382.966 99.5327 382.793 98.9727 382.446 98.6127C382.113 98.2527 381.58 98.0727 380.846 98.0727C380.246 98.0727 379.76 98.2061 379.386 98.4727C379.026 98.7261 378.713 99.0994 378.446 99.5927L377.546 98.7527C377.813 98.1927 378.24 97.7261 378.826 97.3527C379.413 96.9661 380.106 96.7727 380.906 96.7727C382.08 96.7727 382.966 97.0594 383.566 97.6327C384.18 98.1927 384.486 99.0261 384.486 100.133V105.973H385.526V107.313H384.446ZM380.546 106.233C380.893 106.233 381.213 106.173 381.506 106.053C381.813 105.933 382.073 105.779 382.286 105.593C382.5 105.393 382.666 105.173 382.786 104.933C382.906 104.679 382.966 104.419 382.966 104.153V102.593H381.066C380.266 102.593 379.68 102.726 379.306 102.993C378.946 103.259 378.766 103.646 378.766 104.153V104.713C378.766 105.233 378.926 105.619 379.246 105.873C379.566 106.113 380 106.233 380.546 106.233ZM390.994 107.553C389.714 107.553 388.708 107.133 387.974 106.293C387.254 105.453 386.894 104.073 386.894 102.153C386.894 100.233 387.254 98.8527 387.974 98.0127C388.708 97.1727 389.714 96.7527 390.994 96.7527C391.968 96.7527 392.741 96.9794 393.314 97.4327C393.901 97.8727 394.328 98.4394 394.594 99.1327L393.334 99.7727C393.161 99.2394 392.888 98.8327 392.514 98.5527C392.141 98.2594 391.634 98.1127 390.994 98.1127C390.154 98.1127 389.534 98.3594 389.134 98.8527C388.734 99.3461 388.534 100.099 388.534 101.113V103.193C388.534 104.206 388.734 104.959 389.134 105.453C389.534 105.946 390.154 106.193 390.994 106.193C391.661 106.193 392.194 106.046 392.594 105.753C393.008 105.459 393.334 105.013 393.574 104.413L394.694 105.193C394.388 105.913 393.921 106.486 393.294 106.913C392.681 107.339 391.914 107.553 390.994 107.553ZM396.676 92.5127H398.196V100.113L398.076 102.133H398.236L399.676 100.193L402.256 96.9927H404.096L400.676 101.093L404.396 107.313H402.576L399.556 101.993L398.196 103.593V107.313H396.676V92.5127ZM412.526 107.313C411.979 107.313 411.579 107.193 411.326 106.953C411.086 106.699 410.966 106.299 410.966 105.753V98.3327H409.446V96.9927H410.346C410.652 96.9927 410.852 96.9194 410.946 96.7727C411.052 96.6127 411.106 96.3794 411.106 96.0727V94.1527H412.486V96.9927H414.486V98.3327H412.486V105.973H414.386V107.313H412.526ZM420.255 107.553C419.655 107.553 419.095 107.453 418.575 107.253C418.055 107.053 417.608 106.733 417.235 106.293C416.862 105.853 416.568 105.293 416.355 104.613C416.142 103.933 416.035 103.113 416.035 102.153C416.035 101.193 416.142 100.373 416.355 99.6927C416.568 99.0127 416.862 98.4527 417.235 98.0127C417.608 97.5727 418.055 97.2527 418.575 97.0527C419.095 96.8527 419.655 96.7527 420.255 96.7527C420.855 96.7527 421.415 96.8527 421.935 97.0527C422.455 97.2527 422.902 97.5727 423.275 98.0127C423.648 98.4527 423.942 99.0127 424.155 99.6927C424.368 100.373 424.475 101.193 424.475 102.153C424.475 103.113 424.368 103.933 424.155 104.613C423.942 105.293 423.648 105.853 423.275 106.293C422.902 106.733 422.455 107.053 421.935 107.253C421.415 107.453 420.855 107.553 420.255 107.553ZM420.255 106.193C421.082 106.193 421.715 105.946 422.155 105.453C422.608 104.959 422.835 104.206 422.835 103.193V101.113C422.835 100.099 422.608 99.3461 422.155 98.8527C421.715 98.3594 421.082 98.1127 420.255 98.1127C419.428 98.1127 418.788 98.3594 418.335 98.8527C417.895 99.3461 417.675 100.099 417.675 101.113V103.193C417.675 104.206 417.895 104.959 418.335 105.453C418.788 105.946 419.428 106.193 420.255 106.193ZM436.651 96.9927H438.131L434.051 109.953C433.971 110.219 433.885 110.439 433.791 110.613C433.698 110.799 433.578 110.939 433.431 111.033C433.298 111.139 433.131 111.213 432.931 111.253C432.745 111.293 432.505 111.313 432.211 111.313H431.091V109.973H432.671L433.271 107.873L429.851 96.9927H431.371L432.951 102.193L433.911 105.973H434.111L435.071 102.193L436.651 96.9927ZM443.419 107.553C442.819 107.553 442.259 107.453 441.739 107.253C441.219 107.053 440.772 106.733 440.399 106.293C440.026 105.853 439.732 105.293 439.519 104.613C439.306 103.933 439.199 103.113 439.199 102.153C439.199 101.193 439.306 100.373 439.519 99.6927C439.732 99.0127 440.026 98.4527 440.399 98.0127C440.772 97.5727 441.219 97.2527 441.739 97.0527C442.259 96.8527 442.819 96.7527 443.419 96.7527C444.019 96.7527 444.579 96.8527 445.099 97.0527C445.619 97.2527 446.066 97.5727 446.439 98.0127C446.812 98.4527 447.106 99.0127 447.319 99.6927C447.532 100.373 447.639 101.193 447.639 102.153C447.639 103.113 447.532 103.933 447.319 104.613C447.106 105.293 446.812 105.853 446.439 106.293C446.066 106.733 445.619 107.053 445.099 107.253C444.579 107.453 444.019 107.553 443.419 107.553ZM443.419 106.193C444.246 106.193 444.879 105.946 445.319 105.453C445.772 104.959 445.999 104.206 445.999 103.193V101.113C445.999 100.099 445.772 99.3461 445.319 98.8527C444.879 98.3594 444.246 98.1127 443.419 98.1127C442.592 98.1127 441.952 98.3594 441.499 98.8527C441.059 99.3461 440.839 100.099 440.839 101.113V103.193C440.839 104.206 441.059 104.959 441.499 105.453C441.952 105.946 442.592 106.193 443.419 106.193ZM455.677 105.633H455.477C455.277 106.273 454.964 106.753 454.537 107.073C454.124 107.393 453.557 107.553 452.837 107.553C451.917 107.553 451.19 107.239 450.657 106.613C450.137 105.986 449.877 105.019 449.877 103.713V96.9927H451.397V103.613C451.397 104.439 451.564 105.073 451.897 105.513C452.244 105.953 452.77 106.173 453.477 106.173C454.09 106.173 454.61 105.986 455.037 105.613C455.464 105.239 455.677 104.713 455.677 104.033V96.9927H457.197V107.313H455.677V105.633ZM465.229 94.4927C464.603 94.4927 464.289 94.2194 464.289 93.6727V93.3527C464.289 92.8061 464.603 92.5327 465.229 92.5327C465.856 92.5327 466.169 92.8061 466.169 93.3527V93.6727C466.169 94.2194 465.856 94.4927 465.229 94.4927ZM464.469 96.9927H465.989V107.313H464.469V96.9927ZM469.02 107.313V96.9927H470.54V98.6727H470.74C470.94 98.0327 471.247 97.5527 471.66 97.2327C472.087 96.9127 472.66 96.7527 473.38 96.7527C474.3 96.7527 475.02 97.0661 475.54 97.6927C476.073 98.3194 476.34 99.2861 476.34 100.593V107.313H474.82V100.693C474.82 99.8661 474.647 99.2327 474.3 98.7927C473.967 98.3527 473.447 98.1327 472.74 98.1327C472.127 98.1327 471.607 98.3194 471.18 98.6927C470.753 99.0661 470.54 99.5927 470.54 100.273V107.313H469.02ZM485.072 107.313C484.526 107.313 484.126 107.193 483.872 106.953C483.632 106.699 483.512 106.299 483.512 105.753V92.5127H485.032V105.973H486.332V107.313H485.072ZM491.974 107.553C491.374 107.553 490.814 107.453 490.294 107.253C489.774 107.053 489.327 106.733 488.954 106.293C488.58 105.853 488.287 105.293 488.074 104.613C487.86 103.933 487.754 103.113 487.754 102.153C487.754 101.193 487.86 100.373 488.074 99.6927C488.287 99.0127 488.58 98.4527 488.954 98.0127C489.327 97.5727 489.774 97.2527 490.294 97.0527C490.814 96.8527 491.374 96.7527 491.974 96.7527C492.574 96.7527 493.12 96.8527 493.614 97.0527C494.12 97.2527 494.547 97.5727 494.894 98.0127C495.24 98.4527 495.507 99.0127 495.694 99.6927C495.894 100.373 495.994 101.193 495.994 102.153V102.533H489.374V103.193C489.374 104.206 489.6 104.966 490.054 105.473C490.52 105.966 491.16 106.213 491.974 106.213C492.667 106.213 493.234 106.066 493.674 105.773C494.114 105.466 494.46 105.013 494.714 104.413L495.754 105.173C495.434 105.879 494.96 106.453 494.334 106.893C493.72 107.333 492.934 107.553 491.974 107.553ZM491.974 98.0327C491.147 98.0327 490.507 98.2927 490.054 98.8127C489.6 99.3327 489.374 100.099 489.374 101.113V101.373H494.374V101.113C494.374 99.0594 493.574 98.0327 491.974 98.0327ZM501.216 107.553C500.363 107.553 499.629 107.379 499.016 107.033C498.416 106.686 497.903 106.206 497.476 105.593L498.536 104.713C498.896 105.219 499.283 105.606 499.696 105.873C500.123 106.139 500.629 106.273 501.216 106.273C501.816 106.273 502.289 106.126 502.636 105.833C502.996 105.526 503.176 105.093 503.176 104.533C503.176 104.079 503.063 103.713 502.836 103.433C502.609 103.153 502.189 102.959 501.576 102.853L500.796 102.713C499.796 102.526 499.049 102.213 498.556 101.773C498.076 101.333 497.836 100.666 497.836 99.7727C497.836 99.2527 497.916 98.8061 498.076 98.4327C498.236 98.0461 498.463 97.7327 498.756 97.4927C499.049 97.2394 499.396 97.0594 499.796 96.9527C500.209 96.8327 500.656 96.7727 501.136 96.7727C501.909 96.7727 502.556 96.9127 503.076 97.1927C503.609 97.4594 504.069 97.8527 504.456 98.3727L503.476 99.2727C503.249 98.9527 502.949 98.6727 502.576 98.4327C502.203 98.1794 501.723 98.0527 501.136 98.0527C499.923 98.0527 499.316 98.6061 499.316 99.7127C499.316 100.219 499.443 100.593 499.696 100.833C499.963 101.059 500.389 101.226 500.976 101.333L501.756 101.473C502.809 101.659 503.556 101.986 503.996 102.453C504.436 102.919 504.656 103.553 504.656 104.353C504.656 105.353 504.363 106.139 503.776 106.713C503.203 107.273 502.349 107.553 501.216 107.553ZM509.829 107.553C508.976 107.553 508.243 107.379 507.629 107.033C507.029 106.686 506.516 106.206 506.089 105.593L507.149 104.713C507.509 105.219 507.896 105.606 508.309 105.873C508.736 106.139 509.243 106.273 509.829 106.273C510.429 106.273 510.903 106.126 511.249 105.833C511.609 105.526 511.789 105.093 511.789 104.533C511.789 104.079 511.676 103.713 511.449 103.433C511.223 103.153 510.803 102.959 510.189 102.853L509.409 102.713C508.409 102.526 507.663 102.213 507.169 101.773C506.689 101.333 506.449 100.666 506.449 99.7727C506.449 99.2527 506.529 98.8061 506.689 98.4327C506.849 98.0461 507.076 97.7327 507.369 97.4927C507.663 97.2394 508.009 97.0594 508.409 96.9527C508.823 96.8327 509.269 96.7727 509.749 96.7727C510.523 96.7727 511.169 96.9127 511.689 97.1927C512.223 97.4594 512.683 97.8527 513.069 98.3727L512.089 99.2727C511.863 98.9527 511.563 98.6727 511.189 98.4327C510.816 98.1794 510.336 98.0527 509.749 98.0527C508.536 98.0527 507.929 98.6061 507.929 99.7127C507.929 100.219 508.056 100.593 508.309 100.833C508.576 101.059 509.003 101.226 509.589 101.333L510.369 101.473C511.423 101.659 512.169 101.986 512.609 102.453C513.049 102.919 513.269 103.553 513.269 104.353C513.269 105.353 512.976 106.139 512.389 106.713C511.816 107.273 510.963 107.553 509.829 107.553ZM68.6 133.313C68.0533 133.313 67.6533 133.193 67.4 132.953C67.16 132.699 67.04 132.299 67.04 131.753V124.333H65.52V122.993H66.42C66.7267 122.993 66.9267 122.919 67.02 122.773C67.1267 122.613 67.18 122.379 67.18 122.073V120.153H68.56V122.993H70.56V124.333H68.56V131.973H70.46V133.313H68.6ZM72.8872 118.513H74.4072V124.673H74.6072C74.8072 124.033 75.1139 123.553 75.5272 123.233C75.9539 122.913 76.5272 122.753 77.2472 122.753C78.1672 122.753 78.8872 123.066 79.4072 123.693C79.9405 124.319 80.2072 125.286 80.2072 126.593V133.313H78.6872V126.693C78.6872 125.866 78.5139 125.233 78.1672 124.793C77.8339 124.353 77.3139 124.133 76.6072 124.133C75.9939 124.133 75.4739 124.319 75.0472 124.693C74.6205 125.066 74.4072 125.593 74.4072 126.273V133.313H72.8872V118.513ZM89.6611 133.313C88.6744 133.313 88.1811 132.819 88.1811 131.833V131.633H87.9811C87.8078 132.259 87.4878 132.739 87.0211 133.073C86.5678 133.393 86.0211 133.553 85.3811 133.553C84.3811 133.553 83.6344 133.299 83.1411 132.793C82.6478 132.286 82.4011 131.539 82.4011 130.553C82.4011 129.593 82.7144 128.833 83.3411 128.273C83.9811 127.713 84.9744 127.433 86.3211 127.433H88.1811V126.293C88.1811 125.533 88.0078 124.973 87.6611 124.613C87.3278 124.253 86.7944 124.073 86.0611 124.073C85.4611 124.073 84.9744 124.206 84.6011 124.473C84.2411 124.726 83.9278 125.099 83.6611 125.593L82.7611 124.753C83.0278 124.193 83.4544 123.726 84.0411 123.353C84.6278 122.966 85.3211 122.773 86.1211 122.773C87.2944 122.773 88.1811 123.059 88.7811 123.633C89.3944 124.193 89.7011 125.026 89.7011 126.133V131.973H90.7411V133.313H89.6611ZM85.7611 132.233C86.1078 132.233 86.4278 132.173 86.7211 132.053C87.0278 131.933 87.2878 131.779 87.5011 131.593C87.7144 131.393 87.8811 131.173 88.0011 130.933C88.1211 130.679 88.1811 130.419 88.1811 130.153V128.593H86.2811C85.4811 128.593 84.8944 128.726 84.5211 128.993C84.1611 129.259 83.9811 129.646 83.9811 130.153V130.713C83.9811 131.233 84.1411 131.619 84.4611 131.873C84.7811 132.113 85.2144 132.233 85.7611 132.233ZM92.8091 133.313V122.993H94.3291V124.673H94.5291C94.7291 124.033 95.0357 123.553 95.4491 123.233C95.8757 122.913 96.4491 122.753 97.1691 122.753C98.0891 122.753 98.8091 123.066 99.3291 123.693C99.8624 124.319 100.129 125.286 100.129 126.593V133.313H98.6091V126.693C98.6091 125.866 98.4357 125.233 98.0891 124.793C97.7557 124.353 97.2357 124.133 96.5291 124.133C95.9157 124.133 95.3957 124.319 94.9691 124.693C94.5424 125.066 94.3291 125.593 94.3291 126.273V133.313H92.8091ZM115.401 133.313H107.101V131.653L111.341 127.253C112.021 126.559 112.508 125.919 112.801 125.333C113.108 124.733 113.261 124.139 113.261 123.553V123.033C113.261 121.366 112.535 120.533 111.081 120.533C110.361 120.533 109.781 120.719 109.341 121.093C108.915 121.466 108.615 121.993 108.441 122.673L107.041 122.113C107.175 121.686 107.361 121.293 107.601 120.933C107.841 120.559 108.128 120.239 108.461 119.973C108.808 119.706 109.201 119.499 109.641 119.353C110.081 119.193 110.575 119.113 111.121 119.113C112.428 119.113 113.388 119.453 114.001 120.133C114.628 120.799 114.941 121.786 114.941 123.093C114.941 123.546 114.901 123.973 114.821 124.373C114.741 124.759 114.601 125.153 114.401 125.553C114.201 125.939 113.928 126.353 113.581 126.793C113.248 127.219 112.821 127.706 112.301 128.253L108.821 131.913H115.401V133.313ZM123.282 133.313V130.573H117.262V129.153L122.462 119.353H124.802V129.233H126.602V130.573H124.802V133.313H123.282ZM118.722 129.233H123.282V120.633H123.082L118.722 129.233ZM128.903 118.513H130.423V124.673H130.623C130.823 124.033 131.129 123.553 131.543 123.233C131.969 122.913 132.543 122.753 133.263 122.753C134.183 122.753 134.903 123.066 135.423 123.693C135.956 124.319 136.223 125.286 136.223 126.593V133.313H134.703V126.693C134.703 125.866 134.529 125.233 134.183 124.793C133.849 124.353 133.329 124.133 132.623 124.133C132.009 124.133 131.489 124.319 131.063 124.693C130.636 125.066 130.423 125.593 130.423 126.273V133.313H128.903V118.513ZM142.677 133.553C142.077 133.553 141.517 133.453 140.997 133.253C140.477 133.053 140.03 132.733 139.657 132.293C139.283 131.853 138.99 131.293 138.777 130.613C138.563 129.933 138.457 129.113 138.457 128.153C138.457 127.193 138.563 126.373 138.777 125.693C138.99 125.013 139.283 124.453 139.657 124.013C140.03 123.573 140.477 123.253 140.997 123.053C141.517 122.853 142.077 122.753 142.677 122.753C143.277 122.753 143.837 122.853 144.357 123.053C144.877 123.253 145.323 123.573 145.697 124.013C146.07 124.453 146.363 125.013 146.577 125.693C146.79 126.373 146.897 127.193 146.897 128.153C146.897 129.113 146.79 129.933 146.577 130.613C146.363 131.293 146.07 131.853 145.697 132.293C145.323 132.733 144.877 133.053 144.357 133.253C143.837 133.453 143.277 133.553 142.677 133.553ZM142.677 132.193C143.503 132.193 144.137 131.946 144.577 131.453C145.03 130.959 145.257 130.206 145.257 129.193V127.113C145.257 126.099 145.03 125.346 144.577 124.853C144.137 124.359 143.503 124.113 142.677 124.113C141.85 124.113 141.21 124.359 140.757 124.853C140.317 125.346 140.097 126.099 140.097 127.113V129.193C140.097 130.206 140.317 130.959 140.757 131.453C141.21 131.946 141.85 132.193 142.677 132.193ZM154.935 131.633H154.735C154.535 132.273 154.222 132.753 153.795 133.073C153.382 133.393 152.815 133.553 152.095 133.553C151.175 133.553 150.448 133.239 149.915 132.613C149.395 131.986 149.135 131.019 149.135 129.713V122.993H150.655V129.613C150.655 130.439 150.822 131.073 151.155 131.513C151.502 131.953 152.028 132.173 152.735 132.173C153.348 132.173 153.868 131.986 154.295 131.613C154.722 131.239 154.935 130.713 154.935 130.033V122.993H156.455V133.313H154.935V131.633ZM159.489 133.313V122.993H161.009V124.913H161.209C161.382 124.313 161.675 123.846 162.089 123.513C162.515 123.166 163.069 122.993 163.749 122.993H164.309V124.533H163.309C162.589 124.533 162.022 124.693 161.609 125.013C161.209 125.333 161.009 125.813 161.009 126.453V133.313H159.489ZM168.989 133.553C168.136 133.553 167.403 133.379 166.789 133.033C166.189 132.686 165.676 132.206 165.249 131.593L166.309 130.713C166.669 131.219 167.056 131.606 167.469 131.873C167.896 132.139 168.403 132.273 168.989 132.273C169.589 132.273 170.063 132.126 170.409 131.833C170.769 131.526 170.949 131.093 170.949 130.533C170.949 130.079 170.836 129.713 170.609 129.433C170.383 129.153 169.963 128.959 169.349 128.853L168.569 128.713C167.569 128.526 166.823 128.213 166.329 127.773C165.849 127.333 165.609 126.666 165.609 125.773C165.609 125.253 165.689 124.806 165.849 124.433C166.009 124.046 166.236 123.733 166.529 123.493C166.823 123.239 167.169 123.059 167.569 122.953C167.983 122.833 168.429 122.773 168.909 122.773C169.683 122.773 170.329 122.913 170.849 123.193C171.383 123.459 171.843 123.853 172.229 124.373L171.249 125.273C171.023 124.953 170.723 124.673 170.349 124.433C169.976 124.179 169.496 124.053 168.909 124.053C167.696 124.053 167.089 124.606 167.089 125.713C167.089 126.219 167.216 126.593 167.469 126.833C167.736 127.059 168.163 127.226 168.749 127.333L169.529 127.473C170.583 127.659 171.329 127.986 171.769 128.453C172.209 128.919 172.429 129.553 172.429 130.353C172.429 131.353 172.136 132.139 171.549 132.713C170.976 133.273 170.123 133.553 168.989 133.553ZM175.761 133.553C174.975 133.553 174.581 133.213 174.581 132.533V132.213C174.581 131.533 174.975 131.193 175.761 131.193C176.548 131.193 176.941 131.533 176.941 132.213V132.533C176.941 133.213 176.548 133.553 175.761 133.553Z" fill="white"/>
<path fill-rule="evenodd" clip-rule="evenodd" d="M67.1816 180.084C67.4769 179.713 67.8314 179.425 68.2218 179.239C68.6121 179.054 69.0293 178.974 69.4457 179.007C69.8622 179.04 70.2683 179.184 70.6373 179.429C71.0062 179.675 71.3296 180.016 71.5859 180.431L74.6148 185.331C75.17 186.23 75.3658 187.401 75.1464 188.506L74.2233 193.16C74.176 193.401 74.1787 193.653 74.2313 193.893C74.2839 194.132 74.3846 194.35 74.5237 194.526L78.6698 199.748C78.8097 199.923 78.9833 200.05 79.1737 200.117C79.3641 200.183 79.5648 200.186 79.7565 200.126L83.4503 198.964C83.8834 198.828 84.3352 198.818 84.7719 198.934C85.2085 199.05 85.6186 199.289 85.9714 199.633L89.8626 203.445C91.2615 204.816 91.3897 207.419 90.1377 208.994L88.3928 211.191C87.1441 212.764 85.2778 213.455 83.5381 212.683C79.0843 210.712 75.041 207.502 71.7091 203.29C68.3652 199.095 65.8157 194.003 64.2505 188.395C63.6397 186.207 64.1881 183.854 65.4368 182.282L67.1816 180.084Z" fill="#3B72FE"/>
<path d="M135.48 202.18V198.7H132.16V197.06H135.48V193.56H137.32V197.06H140.64V198.7H137.32V202.18H135.48ZM151.561 204H142.981V201.94L147.041 197.82C147.721 197.127 148.207 196.507 148.501 195.96C148.807 195.413 148.961 194.86 148.961 194.3V193.72C148.961 192.333 148.314 191.64 147.021 191.64C146.407 191.64 145.901 191.82 145.501 192.18C145.101 192.54 144.827 193.06 144.681 193.74L142.821 193.02C143.127 191.98 143.647 191.187 144.381 190.64C145.127 190.08 146.047 189.8 147.141 189.8C148.567 189.8 149.601 190.147 150.241 190.84C150.881 191.533 151.201 192.513 151.201 193.78C151.201 194.247 151.154 194.68 151.061 195.08C150.981 195.467 150.834 195.86 150.621 196.26C150.407 196.647 150.121 197.06 149.761 197.5C149.401 197.94 148.947 198.44 148.401 199L145.281 202.18H151.561V204ZM161.782 191.86H156.222L155.882 197.02H156.142C156.302 196.46 156.595 196.007 157.022 195.66C157.448 195.313 158.022 195.14 158.742 195.14C159.875 195.14 160.782 195.5 161.462 196.22C162.142 196.927 162.482 198.02 162.482 199.5C162.482 201.033 162.095 202.207 161.322 203.02C160.548 203.833 159.428 204.24 157.962 204.24C157.015 204.24 156.168 204.027 155.422 203.6C154.675 203.16 154.102 202.547 153.702 201.76L155.262 200.56C155.568 201.16 155.942 201.62 156.382 201.94C156.822 202.247 157.355 202.4 157.982 202.4C159.488 202.4 160.242 201.573 160.242 199.92V199.4C160.242 197.747 159.488 196.92 157.982 196.92C157.128 196.92 156.428 197.293 155.882 198.04L154.082 197.8L154.542 190.04H161.782V191.86ZM169.802 204V201.3H164.022V199.44L168.922 190.04H171.822V199.58H173.542V201.3H171.822V204H169.802ZM165.782 199.58H169.802V192H169.542L165.782 199.58ZM177.263 204L181.783 191.86H177.143V194.38H175.303V190.04H183.903V191.9L179.503 204H177.263ZM194.642 204.24C193.856 204.24 193.176 204.107 192.602 203.84C192.029 203.56 191.556 203.133 191.182 202.56C190.809 201.973 190.536 201.227 190.362 200.32C190.189 199.4 190.102 198.3 190.102 197.02C190.102 195.74 190.189 194.647 190.362 193.74C190.536 192.82 190.809 192.073 191.182 191.5C191.556 190.913 192.029 190.487 192.602 190.22C193.176 189.94 193.856 189.8 194.642 189.8C195.429 189.8 196.109 189.94 196.682 190.22C197.256 190.487 197.722 190.913 198.082 191.5C198.456 192.073 198.729 192.82 198.902 193.74C199.089 194.647 199.182 195.74 199.182 197.02C199.182 198.3 199.089 199.4 198.902 200.32C198.729 201.227 198.456 201.973 198.082 202.56C197.722 203.133 197.256 203.56 196.682 203.84C196.109 204.107 195.429 204.24 194.642 204.24ZM194.642 202.42C195.482 202.42 196.069 202.14 196.402 201.58C196.749 201.007 196.922 200.133 196.922 198.96V195.08C196.922 193.907 196.749 193.04 196.402 192.48C196.069 191.907 195.482 191.62 194.642 191.62C193.802 191.62 193.209 191.907 192.862 192.48C192.529 193.04 192.362 193.907 192.362 195.08V198.96C192.362 200.133 192.529 201.007 192.862 201.58C193.209 202.14 193.802 202.42 194.642 202.42ZM205.443 204.24C203.95 204.24 202.823 203.88 202.063 203.16C201.303 202.44 200.923 201.453 200.923 200.2C200.923 199.2 201.156 198.42 201.623 197.86C202.103 197.3 202.723 196.953 203.483 196.82V196.56C202.843 196.413 202.316 196.067 201.903 195.52C201.503 194.96 201.303 194.24 201.303 193.36C201.303 192.187 201.65 191.3 202.343 190.7C203.05 190.1 204.083 189.8 205.443 189.8C206.803 189.8 207.83 190.1 208.523 190.7C209.23 191.3 209.583 192.187 209.583 193.36C209.583 194.24 209.376 194.96 208.963 195.52C208.563 196.067 208.043 196.413 207.403 196.56V196.82C208.163 196.953 208.776 197.3 209.243 197.86C209.723 198.42 209.963 199.2 209.963 200.2C209.963 201.453 209.583 202.44 208.823 203.16C208.063 203.88 206.936 204.24 205.443 204.24ZM205.443 202.5C206.176 202.5 206.743 202.313 207.143 201.94C207.543 201.567 207.743 201.027 207.743 200.32V199.76C207.743 199.053 207.543 198.513 207.143 198.14C206.743 197.767 206.176 197.58 205.443 197.58C204.71 197.58 204.143 197.767 203.743 198.14C203.343 198.513 203.143 199.053 203.143 199.76V200.32C203.143 201.027 203.343 201.567 203.743 201.94C204.143 202.313 204.71 202.5 205.443 202.5ZM205.443 195.9C206.123 195.9 206.636 195.733 206.983 195.4C207.343 195.067 207.523 194.587 207.523 193.96V193.48C207.523 192.853 207.343 192.373 206.983 192.04C206.636 191.707 206.123 191.54 205.443 191.54C204.763 191.54 204.243 191.707 203.883 192.04C203.536 192.373 203.363 192.853 203.363 193.48V193.96C203.363 194.587 203.536 195.067 203.883 195.4C204.243 195.733 204.763 195.9 205.443 195.9ZM216.244 204.24C214.75 204.24 213.624 203.88 212.864 203.16C212.104 202.44 211.724 201.453 211.724 200.2C211.724 199.2 211.957 198.42 212.424 197.86C212.904 197.3 213.524 196.953 214.284 196.82V196.56C213.644 196.413 213.117 196.067 212.704 195.52C212.304 194.96 212.104 194.24 212.104 193.36C212.104 192.187 212.45 191.3 213.144 190.7C213.85 190.1 214.884 189.8 216.244 189.8C217.604 189.8 218.63 190.1 219.324 190.7C220.03 191.3 220.384 192.187 220.384 193.36C220.384 194.24 220.177 194.96 219.764 195.52C219.364 196.067 218.844 196.413 218.204 196.56V196.82C218.964 196.953 219.577 197.3 220.044 197.86C220.524 198.42 220.764 199.2 220.764 200.2C220.764 201.453 220.384 202.44 219.624 203.16C218.864 203.88 217.737 204.24 216.244 204.24ZM216.244 202.5C216.977 202.5 217.544 202.313 217.944 201.94C218.344 201.567 218.544 201.027 218.544 200.32V199.76C218.544 199.053 218.344 198.513 217.944 198.14C217.544 197.767 216.977 197.58 216.244 197.58C215.51 197.58 214.944 197.767 214.544 198.14C214.144 198.513 213.944 199.053 213.944 199.76V200.32C213.944 201.027 214.144 201.567 214.544 201.94C214.944 202.313 215.51 202.5 216.244 202.5ZM216.244 195.9C216.924 195.9 217.437 195.733 217.784 195.4C218.144 195.067 218.324 194.587 218.324 193.96V193.48C218.324 192.853 218.144 192.373 217.784 192.04C217.437 191.707 216.924 191.54 216.244 191.54C215.564 191.54 215.044 191.707 214.684 192.04C214.337 192.373 214.164 192.853 214.164 193.48V193.96C214.164 194.587 214.337 195.067 214.684 195.4C215.044 195.733 215.564 195.9 216.244 195.9ZM231.405 204H222.825V201.94L226.885 197.82C227.565 197.127 228.051 196.507 228.345 195.96C228.651 195.413 228.805 194.86 228.805 194.3V193.72C228.805 192.333 228.158 191.64 226.865 191.64C226.251 191.64 225.745 191.82 225.345 192.18C224.945 192.54 224.671 193.06 224.525 193.74L222.665 193.02C222.971 191.98 223.491 191.187 224.225 190.64C224.971 190.08 225.891 189.8 226.985 189.8C228.411 189.8 229.445 190.147 230.085 190.84C230.725 191.533 231.045 192.513 231.045 193.78C231.045 194.247 230.998 194.68 230.905 195.08C230.825 195.467 230.678 195.86 230.465 196.26C230.251 196.647 229.965 197.06 229.605 197.5C229.245 197.94 228.791 198.44 228.245 199L225.125 202.18H231.405V204ZM239.744 204L244.264 191.86H239.624V194.38H237.784V190.04H246.384V191.9L241.984 204H239.744ZM253.884 204V201.3H248.104V199.44L253.004 190.04H255.904V199.58H257.624V201.3H255.904V204H253.884ZM249.864 199.58H253.884V192H253.624L249.864 199.58ZM261.345 204L265.865 191.86H261.225V194.38H259.385V190.04H267.985V191.9L263.585 204H261.345ZM270.606 204V202.18H273.946V191.58H273.806L271.286 194.34L270.006 193.24L272.886 190.04H276.026V202.18H279.026V204H270.606Z" fill="white"/>
<path d="M88.4 253.5H67.6C66.17 253.5 65 254.794 65 256.375V273.625C65 275.206 66.17 276.5 67.6 276.5H88.4C89.83 276.5 91 275.206 91 273.625V256.375C91 254.794 89.83 253.5 88.4 253.5ZM87.88 259.609L79.378 265.489C78.533 266.078 77.467 266.078 76.622 265.489L68.12 259.609C67.9896 259.528 67.8755 259.419 67.7845 259.288C67.6934 259.157 67.6274 259.007 67.5903 258.847C67.5533 258.686 67.5461 258.52 67.569 258.356C67.592 258.193 67.6446 258.036 67.7239 257.896C67.8031 257.756 67.9072 257.635 68.0299 257.541C68.1527 257.446 68.2914 257.381 68.4378 257.347C68.5843 257.314 68.7353 257.314 68.8817 257.347C69.0282 257.38 69.1671 257.445 69.29 257.539L78 263.562L86.71 257.539C86.8329 257.445 86.9718 257.38 87.1183 257.347C87.2647 257.314 87.4157 257.314 87.5622 257.347C87.7086 257.381 87.8473 257.446 87.9701 257.541C88.0928 257.635 88.1969 257.756 88.2761 257.896C88.3554 258.036 88.408 258.193 88.431 258.356C88.4539 258.52 88.4467 258.686 88.4097 258.847C88.3726 259.007 88.3066 259.157 88.2155 259.288C88.1245 259.419 88.0104 259.528 87.88 259.609Z" fill="#3B72FE"/>
<path d="M133.44 260.62C132.613 260.62 132.2 260.267 132.2 259.56V259.2C132.2 258.493 132.613 258.14 133.44 258.14C134.267 258.14 134.68 258.493 134.68 259.2V259.56C134.68 260.267 134.267 260.62 133.44 260.62ZM132.42 262.6H134.48V273H132.42V262.6ZM137.283 273V262.6H139.343V264.32H139.583C139.996 263.013 140.849 262.36 142.143 262.36C143.076 262.36 143.796 262.68 144.303 263.32C144.823 263.947 145.083 264.873 145.083 266.1V273H143.023V266.38C143.023 265.647 142.883 265.087 142.603 264.7C142.323 264.313 141.883 264.12 141.283 264.12C140.736 264.12 140.276 264.287 139.903 264.62C139.529 264.94 139.343 265.393 139.343 265.98V273H137.283ZM148.291 264.3H146.851V262.6H148.291V260.62C148.291 259.78 148.477 259.167 148.851 258.78C149.224 258.393 149.817 258.2 150.631 258.2H152.291V259.9H150.351V262.6H152.291V264.3H150.351V273H148.291V264.3ZM157.642 273.24C156.975 273.24 156.375 273.133 155.842 272.92C155.322 272.707 154.869 272.38 154.482 271.94C154.109 271.5 153.822 270.94 153.622 270.26C153.422 269.567 153.322 268.747 153.322 267.8C153.322 266.853 153.422 266.04 153.622 265.36C153.822 264.667 154.109 264.1 154.482 263.66C154.869 263.22 155.322 262.893 155.842 262.68C156.375 262.467 156.975 262.36 157.642 262.36C158.295 262.36 158.889 262.467 159.422 262.68C159.955 262.893 160.409 263.22 160.782 263.66C161.169 264.1 161.462 264.667 161.662 265.36C161.862 266.04 161.962 266.853 161.962 267.8C161.962 268.747 161.862 269.567 161.662 270.26C161.462 270.94 161.169 271.5 160.782 271.94C160.409 272.38 159.955 272.707 159.422 272.92C158.889 273.133 158.295 273.24 157.642 273.24ZM157.642 271.52C158.335 271.52 158.862 271.313 159.222 270.9C159.595 270.487 159.782 269.86 159.782 269.02V266.58C159.782 265.74 159.595 265.113 159.222 264.7C158.862 264.287 158.335 264.08 157.642 264.08C156.949 264.08 156.415 264.287 156.042 264.7C155.682 265.113 155.502 265.74 155.502 266.58V269.02C155.502 269.86 155.682 270.487 156.042 270.9C156.415 271.313 156.949 271.52 157.642 271.52ZM174.839 275.4H170.859C169.753 275.4 168.753 275.207 167.859 274.82C166.979 274.447 166.226 273.907 165.599 273.2C164.986 272.493 164.513 271.633 164.179 270.62C163.859 269.593 163.699 268.447 163.699 267.18C163.699 265.9 163.866 264.747 164.199 263.72C164.533 262.68 165.006 261.8 165.619 261.08C166.246 260.347 167.006 259.787 167.899 259.4C168.806 259 169.819 258.8 170.939 258.8C172.019 258.8 172.986 258.973 173.839 259.32C174.706 259.653 175.433 260.147 176.019 260.8C176.619 261.453 177.073 262.26 177.379 263.22C177.699 264.167 177.859 265.247 177.859 266.46C177.859 268.073 177.566 269.32 176.979 270.2C176.406 271.067 175.573 271.5 174.479 271.5C173.799 271.5 173.279 271.353 172.919 271.06C172.559 270.767 172.346 270.38 172.279 269.9H172.079C171.986 270.367 171.773 270.747 171.439 271.04C171.119 271.333 170.693 271.48 170.159 271.48C169.733 271.48 169.339 271.4 168.979 271.24C168.633 271.08 168.326 270.827 168.059 270.48C167.806 270.12 167.606 269.673 167.459 269.14C167.313 268.593 167.239 267.94 167.239 267.18C167.239 266.42 167.313 265.773 167.459 265.24C167.606 264.693 167.806 264.247 168.059 263.9C168.326 263.54 168.633 263.28 168.979 263.12C169.339 262.96 169.733 262.88 170.159 262.88C170.653 262.88 171.053 263.02 171.359 263.3C171.679 263.58 171.879 263.953 171.959 264.42H172.159V263.06H173.879V268.9C173.879 269.367 173.953 269.693 174.099 269.88C174.246 270.067 174.473 270.16 174.779 270.16C175.286 270.16 175.673 269.9 175.939 269.38C176.206 268.847 176.339 268.04 176.339 266.96V265.78C176.339 264.887 176.206 264.087 175.939 263.38C175.673 262.66 175.293 262.053 174.799 261.56C174.319 261.053 173.739 260.673 173.059 260.42C172.393 260.153 171.659 260.02 170.859 260.02C169.979 260.02 169.193 260.18 168.499 260.5C167.806 260.807 167.219 261.24 166.739 261.8C166.259 262.36 165.893 263.027 165.639 263.8C165.386 264.573 165.259 265.42 165.259 266.34V267.86C165.259 268.78 165.386 269.627 165.639 270.4C165.893 271.173 166.259 271.84 166.739 272.4C167.219 272.96 167.806 273.393 168.499 273.7C169.193 274.02 169.979 274.18 170.859 274.18H174.839V275.4ZM170.679 270.02C171.146 270.02 171.506 269.873 171.759 269.58C172.026 269.273 172.159 268.9 172.159 268.46V265.92C172.159 265.48 172.026 265.113 171.759 264.82C171.506 264.513 171.146 264.36 170.679 264.36C170.146 264.36 169.739 264.533 169.459 264.88C169.193 265.213 169.059 265.687 169.059 266.3V268.08C169.059 268.693 169.193 269.173 169.459 269.52C169.739 269.853 170.146 270.02 170.679 270.02ZM180.252 258.2H182.312V264.3H182.552C182.725 263.687 183.032 263.213 183.472 262.88C183.925 262.533 184.458 262.36 185.072 262.36C186.312 262.36 187.232 262.833 187.832 263.78C188.432 264.713 188.732 266.053 188.732 267.8C188.732 269.547 188.432 270.893 187.832 271.84C187.232 272.773 186.312 273.24 185.072 273.24C184.458 273.24 183.925 273.073 183.472 272.74C183.032 272.393 182.725 271.913 182.552 271.3H182.312V273H180.252V258.2ZM184.332 271.48C185.038 271.48 185.585 271.26 185.972 270.82C186.358 270.38 186.552 269.76 186.552 268.96V266.64C186.552 265.84 186.358 265.22 185.972 264.78C185.585 264.34 185.038 264.12 184.332 264.12C183.745 264.12 183.258 264.273 182.872 264.58C182.498 264.887 182.312 265.307 182.312 265.84V269.76C182.312 270.293 182.498 270.713 182.872 271.02C183.258 271.327 183.745 271.48 184.332 271.48ZM194.615 273.24C193.948 273.24 193.348 273.133 192.815 272.92C192.295 272.707 191.841 272.38 191.455 271.94C191.081 271.5 190.795 270.94 190.595 270.26C190.395 269.567 190.295 268.747 190.295 267.8C190.295 266.853 190.395 266.04 190.595 265.36C190.795 264.667 191.081 264.1 191.455 263.66C191.841 263.22 192.295 262.893 192.815 262.68C193.348 262.467 193.948 262.36 194.615 262.36C195.268 262.36 195.861 262.467 196.395 262.68C196.928 262.893 197.381 263.22 197.755 263.66C198.141 264.1 198.435 264.667 198.635 265.36C198.835 266.04 198.935 266.853 198.935 267.8C198.935 268.747 198.835 269.567 198.635 270.26C198.435 270.94 198.141 271.5 197.755 271.94C197.381 272.38 196.928 272.707 196.395 272.92C195.861 273.133 195.268 273.24 194.615 273.24ZM194.615 271.52C195.308 271.52 195.835 271.313 196.195 270.9C196.568 270.487 196.755 269.86 196.755 269.02V266.58C196.755 265.74 196.568 265.113 196.195 264.7C195.835 264.287 195.308 264.08 194.615 264.08C193.921 264.08 193.388 264.287 193.015 264.7C192.655 265.113 192.475 265.74 192.475 266.58V269.02C192.475 269.86 192.655 270.487 193.015 270.9C193.388 271.313 193.921 271.52 194.615 271.52ZM204.732 273.24C204.065 273.24 203.465 273.133 202.932 272.92C202.412 272.707 201.959 272.38 201.572 271.94C201.199 271.5 200.912 270.94 200.712 270.26C200.512 269.567 200.412 268.747 200.412 267.8C200.412 266.853 200.512 266.04 200.712 265.36C200.912 264.667 201.199 264.1 201.572 263.66C201.959 263.22 202.412 262.893 202.932 262.68C203.465 262.467 204.065 262.36 204.732 262.36C205.385 262.36 205.979 262.467 206.512 262.68C207.045 262.893 207.499 263.22 207.872 263.66C208.259 264.1 208.552 264.667 208.752 265.36C208.952 266.04 209.052 266.853 209.052 267.8C209.052 268.747 208.952 269.567 208.752 270.26C208.552 270.94 208.259 271.5 207.872 271.94C207.499 272.38 207.045 272.707 206.512 272.92C205.979 273.133 205.385 273.24 204.732 273.24ZM204.732 271.52C205.425 271.52 205.952 271.313 206.312 270.9C206.685 270.487 206.872 269.86 206.872 269.02V266.58C206.872 265.74 206.685 265.113 206.312 264.7C205.952 264.287 205.425 264.08 204.732 264.08C204.039 264.08 203.505 264.287 203.132 264.7C202.772 265.113 202.592 265.74 202.592 266.58V269.02C202.592 269.86 202.772 270.487 203.132 270.9C203.505 271.313 204.039 271.52 204.732 271.52ZM214.229 273.24C213.362 273.24 212.609 273.08 211.969 272.76C211.342 272.427 210.796 271.947 210.329 271.32L211.649 270.1C211.996 270.593 212.376 270.967 212.789 271.22C213.202 271.46 213.689 271.58 214.249 271.58C214.796 271.58 215.216 271.46 215.509 271.22C215.802 270.967 215.949 270.6 215.949 270.12C215.949 269.747 215.856 269.447 215.669 269.22C215.482 268.993 215.142 268.833 214.649 268.74L213.749 268.58C212.696 268.393 211.922 268.067 211.429 267.6C210.936 267.133 210.689 266.44 210.689 265.52C210.689 264.44 211.002 263.647 211.629 263.14C212.256 262.62 213.116 262.36 214.209 262.36C215.009 262.36 215.689 262.5 216.249 262.78C216.822 263.047 217.322 263.44 217.749 263.96L216.509 265.18C216.229 264.793 215.889 264.507 215.489 264.32C215.102 264.12 214.682 264.02 214.229 264.02C213.189 264.02 212.669 264.493 212.669 265.44C212.669 265.853 212.776 266.16 212.989 266.36C213.202 266.56 213.542 266.7 214.009 266.78L214.929 266.96C216.009 267.147 216.776 267.48 217.229 267.96C217.696 268.427 217.929 269.073 217.929 269.9C217.929 270.953 217.609 271.773 216.969 272.36C216.329 272.947 215.416 273.24 214.229 273.24ZM222.616 273C221.896 273 221.37 272.84 221.036 272.52C220.716 272.2 220.556 271.68 220.556 270.96V264.3H219.116V262.6H219.916C220.25 262.6 220.47 262.527 220.576 262.38C220.696 262.22 220.756 261.973 220.756 261.64V259.76H222.616V262.6H224.556V264.3H222.616V271.3H224.416V273H222.616ZM226.619 258.2H228.679V265.38L228.539 267.48H228.759L230.079 265.54L232.359 262.6H234.739L231.419 266.72L234.959 273H232.599L229.959 268.02L228.679 269.56V273H226.619V258.2ZM240.184 273.24C239.531 273.24 238.931 273.133 238.384 272.92C237.837 272.707 237.371 272.38 236.984 271.94C236.597 271.487 236.291 270.92 236.064 270.24C235.851 269.56 235.744 268.747 235.744 267.8C235.744 266.853 235.844 266.04 236.044 265.36C236.244 264.667 236.531 264.1 236.904 263.66C237.291 263.22 237.744 262.893 238.264 262.68C238.797 262.467 239.397 262.36 240.064 262.36C241.384 262.36 242.411 262.793 243.144 263.66C243.891 264.527 244.264 265.907 244.264 267.8V268.32H237.904V268.98C237.904 269.807 238.111 270.44 238.524 270.88C238.951 271.32 239.531 271.54 240.264 271.54C240.891 271.54 241.404 271.4 241.804 271.12C242.217 270.84 242.564 270.447 242.844 269.94L244.044 271.08C243.671 271.733 243.164 272.26 242.524 272.66C241.897 273.047 241.117 273.24 240.184 273.24ZM240.064 264C239.371 264 238.837 264.213 238.464 264.64C238.091 265.053 237.904 265.68 237.904 266.52V266.94H242.084V266.52C242.084 264.84 241.411 264 240.064 264ZM247.312 273.22C246.845 273.22 246.499 273.12 246.272 272.92C246.045 272.707 245.932 272.407 245.932 272.02V271.62C245.932 271.233 246.045 270.94 246.272 270.74C246.499 270.527 246.845 270.42 247.312 270.42C247.779 270.42 248.125 270.527 248.352 270.74C248.579 270.94 248.692 271.233 248.692 271.62V272.02C248.692 272.407 248.579 272.707 248.352 272.92C248.125 273.12 247.779 273.22 247.312 273.22ZM254.496 273.24C253.136 273.24 252.089 272.807 251.356 271.94C250.622 271.073 250.256 269.693 250.256 267.8C250.256 265.907 250.622 264.527 251.356 263.66C252.089 262.793 253.136 262.36 254.496 262.36C255.496 262.36 256.296 262.593 256.896 263.06C257.496 263.513 257.929 264.12 258.196 264.88L256.496 265.68C256.376 265.16 256.156 264.767 255.836 264.5C255.529 264.22 255.082 264.08 254.496 264.08C253.122 264.08 252.436 264.913 252.436 266.58V269.02C252.436 270.687 253.122 271.52 254.496 271.52C255.096 271.52 255.562 271.38 255.896 271.1C256.242 270.807 256.509 270.38 256.696 269.82L258.256 270.68C257.949 271.493 257.482 272.127 256.856 272.58C256.242 273.02 255.456 273.24 254.496 273.24ZM263.677 273.24C263.011 273.24 262.411 273.133 261.877 272.92C261.357 272.707 260.904 272.38 260.517 271.94C260.144 271.5 259.857 270.94 259.657 270.26C259.457 269.567 259.357 268.747 259.357 267.8C259.357 266.853 259.457 266.04 259.657 265.36C259.857 264.667 260.144 264.1 260.517 263.66C260.904 263.22 261.357 262.893 261.877 262.68C262.411 262.467 263.011 262.36 263.677 262.36C264.331 262.36 264.924 262.467 265.457 262.68C265.991 262.893 266.444 263.22 266.817 263.66C267.204 264.1 267.497 264.667 267.697 265.36C267.897 266.04 267.997 266.853 267.997 267.8C267.997 268.747 267.897 269.567 267.697 270.26C267.497 270.94 267.204 271.5 266.817 271.94C266.444 272.38 265.991 272.707 265.457 272.92C264.924 273.133 264.331 273.24 263.677 273.24ZM263.677 271.52C264.371 271.52 264.897 271.313 265.257 270.9C265.631 270.487 265.817 269.86 265.817 269.02V266.58C265.817 265.74 265.631 265.113 265.257 264.7C264.897 264.287 264.371 264.08 263.677 264.08C262.984 264.08 262.451 264.287 262.077 264.7C261.717 265.113 261.537 265.74 261.537 266.58V269.02C261.537 269.86 261.717 270.487 262.077 270.9C262.451 271.313 262.984 271.52 263.677 271.52ZM270.134 273V262.6H272.194V264.32H272.434C272.848 263.013 273.681 262.36 274.934 262.36C276.228 262.36 277.088 263.027 277.514 264.36H277.734C277.948 263.68 278.288 263.18 278.754 262.86C279.221 262.527 279.808 262.36 280.514 262.36C281.408 262.36 282.101 262.68 282.594 263.32C283.101 263.947 283.354 264.873 283.354 266.1V273H281.294V266.38C281.294 265.647 281.154 265.087 280.874 264.7C280.608 264.313 280.194 264.12 279.634 264.12C279.128 264.12 278.688 264.287 278.314 264.62C277.954 264.94 277.774 265.393 277.774 265.98V273H275.714V266.38C275.714 265.647 275.574 265.087 275.294 264.7C275.028 264.313 274.614 264.12 274.054 264.12C273.534 264.12 273.094 264.287 272.734 264.62C272.374 264.94 272.194 265.393 272.194 265.98V273H270.134Z" fill="white"/>
<path d="M82 321.125C78.9014 321.129 75.9308 322.361 73.7397 324.552C71.5487 326.743 70.3162 329.714 70.3125 332.812C70.3088 335.345 71.1359 337.808 72.667 339.825C72.667 339.825 72.9858 340.245 73.0378 340.305L82 350.875L90.9664 340.3C91.0132 340.244 91.333 339.825 91.333 339.825L91.3341 339.822C92.8644 337.806 93.6911 335.344 93.6875 332.812C93.6839 329.714 92.4513 326.743 90.2603 324.552C88.0692 322.361 85.0986 321.129 82 321.125ZM82 337.062C81.1594 337.062 80.3377 336.813 79.6388 336.346C78.9399 335.879 78.3952 335.215 78.0735 334.439C77.7519 333.662 77.6677 332.808 77.8317 331.983C77.9957 331.159 78.4004 330.402 78.9948 329.807C79.5892 329.213 80.3465 328.808 81.1709 328.644C81.9953 328.48 82.8498 328.564 83.6264 328.886C84.403 329.208 85.0668 329.752 85.5338 330.451C86.0008 331.15 86.25 331.972 86.25 332.812C86.2486 333.939 85.8004 335.019 85.0037 335.816C84.2069 336.613 83.1268 337.061 82 337.062Z" fill="#3B72FE"/>
<path d="M142.12 335.4L142.26 333.02H142.02L141.06 335.36L138.34 341.04L135.64 335.36L134.68 333.06H134.44L134.58 335.4V344H132.54V330.04H135.04L137.3 334.92L138.28 337.68H138.46L139.44 334.92L141.68 330.04H144.16V344H142.12V335.4ZM150.887 344.24C150.234 344.24 149.634 344.133 149.087 343.92C148.54 343.707 148.074 343.38 147.687 342.94C147.3 342.487 146.994 341.92 146.767 341.24C146.554 340.56 146.447 339.747 146.447 338.8C146.447 337.853 146.547 337.04 146.747 336.36C146.947 335.667 147.234 335.1 147.607 334.66C147.994 334.22 148.447 333.893 148.967 333.68C149.5 333.467 150.1 333.36 150.767 333.36C152.087 333.36 153.114 333.793 153.847 334.66C154.594 335.527 154.967 336.907 154.967 338.8V339.32H148.607V339.98C148.607 340.807 148.814 341.44 149.227 341.88C149.654 342.32 150.234 342.54 150.967 342.54C151.594 342.54 152.107 342.4 152.507 342.12C152.92 341.84 153.267 341.447 153.547 340.94L154.747 342.08C154.374 342.733 153.867 343.26 153.227 343.66C152.6 344.047 151.82 344.24 150.887 344.24ZM150.767 335C150.074 335 149.54 335.213 149.167 335.64C148.794 336.053 148.607 336.68 148.607 337.52V337.94H152.787V337.52C152.787 335.84 152.114 335 150.767 335ZM157.127 344V333.6H159.187V335.66H159.427C159.573 334.993 159.847 334.487 160.247 334.14C160.66 333.78 161.18 333.6 161.807 333.6H162.327V335.7H161.447C160.713 335.7 160.153 335.84 159.767 336.12C159.38 336.4 159.187 336.847 159.187 337.46V344H157.127ZM169.7 342.28H169.44C169.027 343.587 168.167 344.24 166.86 344.24C165.94 344.24 165.22 343.927 164.7 343.3C164.193 342.66 163.94 341.727 163.94 340.5V333.6H166V340.22C166 341.727 166.587 342.48 167.76 342.48C168.293 342.48 168.747 342.32 169.12 342C169.507 341.667 169.7 341.207 169.7 340.62V333.6H171.76V344H169.7V342.28ZM180.946 330.04V339.08C180.946 340.2 181.14 341.027 181.526 341.56C181.913 342.093 182.6 342.36 183.586 342.36C184.573 342.36 185.26 342.093 185.646 341.56C186.033 341.027 186.226 340.2 186.226 339.08V330.04H188.346V338.74C188.346 339.687 188.26 340.507 188.086 341.2C187.926 341.893 187.66 342.467 187.286 342.92C186.913 343.373 186.42 343.707 185.806 343.92C185.206 344.133 184.466 344.24 183.586 344.24C182.706 344.24 181.96 344.133 181.346 343.92C180.746 343.707 180.26 343.373 179.886 342.92C179.513 342.467 179.24 341.893 179.066 341.2C178.906 340.507 178.826 339.687 178.826 338.74V330.04H180.946ZM191.189 344V333.6H193.249V335.32H193.489C193.902 334.013 194.756 333.36 196.049 333.36C196.982 333.36 197.702 333.68 198.209 334.32C198.729 334.947 198.989 335.873 198.989 337.1V344H196.929V337.38C196.929 336.647 196.789 336.087 196.509 335.7C196.229 335.313 195.789 335.12 195.189 335.12C194.642 335.12 194.182 335.287 193.809 335.62C193.436 335.94 193.249 336.393 193.249 336.98V344H191.189ZM202.737 331.62C201.91 331.62 201.497 331.267 201.497 330.56V330.2C201.497 329.493 201.91 329.14 202.737 329.14C203.564 329.14 203.977 329.493 203.977 330.2V330.56C203.977 331.267 203.564 331.62 202.737 331.62ZM201.717 333.6H203.777V344H201.717V333.6ZM208.54 344L205.4 333.6H207.48L209 339.02L209.74 342.22H210L210.72 339.02L212.24 333.6H214.26L211.12 344H208.54ZM219.5 344.24C218.847 344.24 218.247 344.133 217.7 343.92C217.154 343.707 216.687 343.38 216.3 342.94C215.914 342.487 215.607 341.92 215.38 341.24C215.167 340.56 215.06 339.747 215.06 338.8C215.06 337.853 215.16 337.04 215.36 336.36C215.56 335.667 215.847 335.1 216.22 334.66C216.607 334.22 217.06 333.893 217.58 333.68C218.114 333.467 218.714 333.36 219.38 333.36C220.7 333.36 221.727 333.793 222.46 334.66C223.207 335.527 223.58 336.907 223.58 338.8V339.32H217.22V339.98C217.22 340.807 217.427 341.44 217.84 341.88C218.267 342.32 218.847 342.54 219.58 342.54C220.207 342.54 220.72 342.4 221.12 342.12C221.534 341.84 221.88 341.447 222.16 340.94L223.36 342.08C222.987 342.733 222.48 343.26 221.84 343.66C221.214 344.047 220.434 344.24 219.5 344.24ZM219.38 335C218.687 335 218.154 335.213 217.78 335.64C217.407 336.053 217.22 336.68 217.22 337.52V337.94H221.4V337.52C221.4 335.84 220.727 335 219.38 335ZM225.74 344V333.6H227.8V335.66H228.04C228.187 334.993 228.46 334.487 228.86 334.14C229.273 333.78 229.793 333.6 230.42 333.6H230.94V335.7H230.06C229.327 335.7 228.767 335.84 228.38 336.12C227.993 336.4 227.8 336.847 227.8 337.46V344H225.74ZM235.713 344.24C234.847 344.24 234.093 344.08 233.453 343.76C232.827 343.427 232.28 342.947 231.813 342.32L233.133 341.1C233.48 341.593 233.86 341.967 234.273 342.22C234.687 342.46 235.173 342.58 235.733 342.58C236.28 342.58 236.7 342.46 236.993 342.22C237.287 341.967 237.433 341.6 237.433 341.12C237.433 340.747 237.34 340.447 237.153 340.22C236.967 339.993 236.627 339.833 236.133 339.74L235.233 339.58C234.18 339.393 233.407 339.067 232.913 338.6C232.42 338.133 232.173 337.44 232.173 336.52C232.173 335.44 232.487 334.647 233.113 334.14C233.74 333.62 234.6 333.36 235.693 333.36C236.493 333.36 237.173 333.5 237.733 333.78C238.307 334.047 238.807 334.44 239.233 334.96L237.993 336.18C237.713 335.793 237.373 335.507 236.973 335.32C236.587 335.12 236.167 335.02 235.713 335.02C234.673 335.02 234.153 335.493 234.153 336.44C234.153 336.853 234.26 337.16 234.473 337.36C234.687 337.56 235.027 337.7 235.493 337.78L236.413 337.96C237.493 338.147 238.26 338.48 238.713 338.96C239.18 339.427 239.413 340.073 239.413 340.9C239.413 341.953 239.093 342.773 238.453 343.36C237.813 343.947 236.9 344.24 235.713 344.24ZM242.639 331.62C241.813 331.62 241.399 331.267 241.399 330.56V330.2C241.399 329.493 241.813 329.14 242.639 329.14C243.466 329.14 243.879 329.493 243.879 330.2V330.56C243.879 331.267 243.466 331.62 242.639 331.62ZM241.619 333.6H243.679V344H241.619V333.6ZM249.042 344C248.322 344 247.795 343.84 247.462 343.52C247.142 343.2 246.982 342.68 246.982 341.96V335.3H245.542V333.6H246.342C246.675 333.6 246.895 333.527 247.002 333.38C247.122 333.22 247.182 332.973 247.182 332.64V330.76H249.042V333.6H250.982V335.3H249.042V342.3H250.842V344H249.042ZM258.783 333.6H260.823L256.803 346.36C256.696 346.68 256.576 346.947 256.443 347.16C256.323 347.373 256.17 347.54 255.983 347.66C255.81 347.793 255.596 347.88 255.343 347.92C255.09 347.973 254.796 348 254.463 348H253.023V346.3H254.903L255.383 344.56L251.923 333.6H254.023L255.583 339.06L256.303 342.22H256.523L257.243 339.06L258.783 333.6ZM270.656 344.24C269.616 344.24 268.709 344.047 267.936 343.66C267.176 343.26 266.523 342.687 265.976 341.94L267.436 340.6C267.849 341.173 268.323 341.613 268.856 341.92C269.389 342.227 269.996 342.38 270.676 342.38C272.329 342.38 273.156 341.62 273.156 340.1C273.156 339.487 273.009 339.02 272.716 338.7C272.423 338.367 271.916 338.113 271.196 337.94L270.056 337.7C268.803 337.42 267.876 336.973 267.276 336.36C266.689 335.733 266.396 334.86 266.396 333.74C266.396 332.447 266.783 331.467 267.556 330.8C268.343 330.133 269.436 329.8 270.836 329.8C271.836 329.8 272.676 329.973 273.356 330.32C274.049 330.653 274.649 331.18 275.156 331.9L273.696 333.18C273.336 332.673 272.929 332.293 272.476 332.04C272.036 331.787 271.476 331.66 270.796 331.66C270.036 331.66 269.463 331.82 269.076 332.14C268.703 332.447 268.516 332.96 268.516 333.68C268.516 334.267 268.663 334.713 268.956 335.02C269.263 335.313 269.756 335.54 270.436 335.7L271.576 335.96C272.243 336.107 272.809 336.293 273.276 336.52C273.743 336.733 274.123 337 274.416 337.32C274.723 337.64 274.943 338.02 275.076 338.46C275.209 338.887 275.276 339.387 275.276 339.96C275.276 341.36 274.869 342.427 274.056 343.16C273.256 343.88 272.123 344.24 270.656 344.24ZM278.601 344.22C278.134 344.22 277.788 344.12 277.561 343.92C277.334 343.707 277.221 343.407 277.221 343.02V342.62C277.221 342.233 277.334 341.94 277.561 341.74C277.788 341.527 278.134 341.42 278.601 341.42C279.068 341.42 279.414 341.527 279.641 341.74C279.868 341.94 279.981 342.233 279.981 342.62V343.02C279.981 343.407 279.868 343.707 279.641 343.92C279.414 344.12 279.068 344.22 278.601 344.22ZM285.718 331.9V344H283.598V331.9H279.898V330.04H289.418V331.9H285.718ZM290.71 344.22C290.244 344.22 289.897 344.12 289.67 343.92C289.444 343.707 289.33 343.407 289.33 343.02V342.62C289.33 342.233 289.444 341.94 289.67 341.74C289.897 341.527 290.244 341.42 290.71 341.42C291.177 341.42 291.524 341.527 291.75 341.74C291.977 341.94 292.09 342.233 292.09 342.62V343.02C292.09 343.407 291.977 343.707 291.75 343.92C291.524 344.12 291.177 344.22 290.71 344.22ZM306.56 335.62L305.5 333.02H305.24L305.4 335.66V344H303.36V330.04H305.8L309.96 338.42L311.04 341.02H311.3L311.14 338.38V330.04H313.18V344H310.72L306.56 335.62ZM319.691 344.24C318.331 344.24 317.284 343.807 316.551 342.94C315.818 342.073 315.451 340.693 315.451 338.8C315.451 336.907 315.818 335.527 316.551 334.66C317.284 333.793 318.331 333.36 319.691 333.36C320.691 333.36 321.491 333.593 322.091 334.06C322.691 334.513 323.124 335.12 323.391 335.88L321.691 336.68C321.571 336.16 321.351 335.767 321.031 335.5C320.724 335.22 320.278 335.08 319.691 335.08C318.318 335.08 317.631 335.913 317.631 337.58V340.02C317.631 341.687 318.318 342.52 319.691 342.52C320.291 342.52 320.758 342.38 321.091 342.1C321.438 341.807 321.704 341.38 321.891 340.82L323.451 341.68C323.144 342.493 322.678 343.127 322.051 343.58C321.438 344.02 320.651 344.24 319.691 344.24ZM325.31 329.2H327.37V335.32H327.61C328.023 334.013 328.877 333.36 330.17 333.36C331.103 333.36 331.823 333.68 332.33 334.32C332.85 334.947 333.11 335.873 333.11 337.1V344H331.05V337.38C331.05 336.647 330.91 336.087 330.63 335.7C330.35 335.313 329.91 335.12 329.31 335.12C328.763 335.12 328.303 335.287 327.93 335.62C327.557 335.94 327.37 336.393 327.37 336.98V344H325.31V329.2ZM336.858 331.62C336.031 331.62 335.618 331.267 335.618 330.56V330.2C335.618 329.493 336.031 329.14 336.858 329.14C337.685 329.14 338.098 329.493 338.098 330.2V330.56C338.098 331.267 337.685 331.62 336.858 331.62ZM335.838 333.6H337.898V344H335.838V333.6ZM340.701 344V333.6H342.761V335.66H343.001C343.147 334.993 343.421 334.487 343.821 334.14C344.234 333.78 344.754 333.6 345.381 333.6H345.901V335.7H345.021C344.287 335.7 343.727 335.84 343.341 336.12C342.954 336.4 342.761 336.847 342.761 337.46V344H340.701ZM353.274 342.28H353.014C352.601 343.587 351.741 344.24 350.434 344.24C349.514 344.24 348.794 343.927 348.274 343.3C347.768 342.66 347.514 341.727 347.514 340.5V333.6H349.574V340.22C349.574 341.727 350.161 342.48 351.334 342.48C351.868 342.48 352.321 342.32 352.694 342C353.081 341.667 353.274 341.207 353.274 340.62V333.6H355.334V344H353.274V342.28ZM359.362 341.42C359.829 341.42 360.176 341.527 360.402 341.74C360.629 341.94 360.742 342.233 360.742 342.62V343.04C360.742 343.68 360.576 344.333 360.242 345C359.909 345.68 359.462 346.267 358.902 346.76H357.402C357.842 346.293 358.182 345.86 358.422 345.46C358.676 345.073 358.862 344.653 358.982 344.2C358.316 344.08 357.982 343.693 357.982 343.04V342.62C357.982 342.233 358.096 341.94 358.322 341.74C358.549 341.527 358.896 341.42 359.362 341.42ZM377.354 335.4L377.494 333.02H377.254L376.294 335.36L373.574 341.04L370.874 335.36L369.914 333.06H369.674L369.814 335.4V344H367.774V330.04H370.274L372.534 334.92L373.514 337.68H373.694L374.674 334.92L376.914 330.04H379.394V344H377.354V335.4ZM386.121 344.24C385.468 344.24 384.868 344.133 384.321 343.92C383.775 343.707 383.308 343.38 382.921 342.94C382.535 342.487 382.228 341.92 382.001 341.24C381.788 340.56 381.681 339.747 381.681 338.8C381.681 337.853 381.781 337.04 381.981 336.36C382.181 335.667 382.468 335.1 382.841 334.66C383.228 334.22 383.681 333.893 384.201 333.68C384.735 333.467 385.335 333.36 386.001 333.36C387.321 333.36 388.348 333.793 389.081 334.66C389.828 335.527 390.201 336.907 390.201 338.8V339.32H383.841V339.98C383.841 340.807 384.048 341.44 384.461 341.88C384.888 342.32 385.468 342.54 386.201 342.54C386.828 342.54 387.341 342.4 387.741 342.12C388.155 341.84 388.501 341.447 388.781 340.94L389.981 342.08C389.608 342.733 389.101 343.26 388.461 343.66C387.835 344.047 387.055 344.24 386.121 344.24ZM386.001 335C385.308 335 384.775 335.213 384.401 335.64C384.028 336.053 383.841 336.68 383.841 337.52V337.94H388.021V337.52C388.021 335.84 387.348 335 386.001 335ZM392.361 344V333.6H394.421V335.66H394.661C394.808 334.993 395.081 334.487 395.481 334.14C395.894 333.78 396.414 333.6 397.041 333.6H397.561V335.7H396.681C395.948 335.7 395.388 335.84 395.001 336.12C394.614 336.4 394.421 336.847 394.421 337.46V344H392.361ZM404.935 342.28H404.675C404.261 343.587 403.401 344.24 402.095 344.24C401.175 344.24 400.455 343.927 399.935 343.3C399.428 342.66 399.175 341.727 399.175 340.5V333.6H401.235V340.22C401.235 341.727 401.821 342.48 402.995 342.48C403.528 342.48 403.981 342.32 404.355 342C404.741 341.667 404.935 341.207 404.935 340.62V333.6H406.995V344H404.935V342.28Z" fill="white"/>
</svg>
